<?xml version="1.0" encoding="UTF-8" standalone="no"?>
<svg
   xmlns:dc="http://purl.org/dc/elements/1.1/"
   xmlns:cc="http://creativecommons.org/ns#"
   xmlns:rdf="http://www.w3.org/1999/02/22-rdf-syntax-ns#"
   xmlns:svg="http://www.w3.org/2000/svg"
   xmlns="http://www.w3.org/2000/svg"
   xmlns:sodipodi="http://sodipodi.sourceforge.net/DTD/sodipodi-0.dtd"
   xmlns:inkscape="http://www.inkscape.org/namespaces/inkscape"
   id="svg"
   version="1.1"
   width="400"
   height="400"
   style="display: block;"
   sodipodi:docname="word-32.svg"
   inkscape:version="0.92.2 (unknown)"
   enable-background="new">
  <metadata
     id="metadata3815">
    <rdf:RDF>
      <cc:Work
         rdf:about="">
        <dc:format>image/svg+xml</dc:format>
        <dc:type
           rdf:resource="http://purl.org/dc/dcmitype/StillImage" />
        <dc:title />
      </cc:Work>
    </rdf:RDF>
  </metadata>
  <defs
     id="defs3813">
    <filter
       inkscape:collect="always"
       style="color-interpolation-filters:sRGB"
       id="filter734">
      <feBlend
         inkscape:collect="always"
         mode="color-burn"
         in2="BackgroundImage"
         id="feBlend736" />
    </filter>
  </defs>
  <sodipodi:namedview
     pagecolor="#ffffff"
     bordercolor="#666666"
     borderopacity="1"
     objecttolerance="10"
     gridtolerance="10"
     guidetolerance="10"
     inkscape:pageopacity="0"
     inkscape:pageshadow="2"
     inkscape:window-width="1280"
     inkscape:window-height="944"
     id="namedview3811"
     showgrid="false"
     inkscape:zoom="1.2887021"
     inkscape:cx="154.83514"
     inkscape:cy="239.77754"
     inkscape:window-x="0"
     inkscape:window-y="0"
     inkscape:window-maximized="1"
     inkscape:current-layer="layer1" />
  <g
     id="svgg">
    <path
       id="path1"
       d=""
       stroke="none"
       fill="#101010"
       fill-rule="evenodd" />
    <path
       id="path2"
       d=""
       stroke="none"
       fill="#181818"
       fill-rule="evenodd" />
    <path
       id="path3"
       d=""
       stroke="none"
       fill="#202020"
       fill-rule="evenodd" />
    <path
       id="path4"
       d=""
       stroke="none"
       fill="#262626"
       fill-rule="evenodd" />
    <path
       id="path5"
       d=""
       stroke="none"
       fill="#2f2f2f"
       fill-rule="evenodd" />
    <path
       id="path6"
       d=""
       stroke="none"
       fill="#3c3c3c"
       fill-rule="evenodd" />
    <path
       id="path7"
       d=""
       stroke="none"
       fill="#454545"
       fill-rule="evenodd" />
    <path
       id="path8"
       d=""
       stroke="none"
       fill="#4d4d4d"
       fill-rule="evenodd" />
    <path
       id="path9"
       d=""
       stroke="none"
       fill="#585858"
       fill-rule="evenodd" />
    <path
       id="path10"
       d=""
       stroke="none"
       fill="#676767"
       fill-rule="evenodd" />
    <path
       id="path11"
       d=""
       stroke="none"
       fill="#6d6d6d"
       fill-rule="evenodd" />
    <path
       id="path12"
       d=""
       stroke="none"
       fill="#737373"
       fill-rule="evenodd" />
    <path
       id="path13"
       d=""
       stroke="none"
       fill="#7b7b7b"
       fill-rule="evenodd" />
    <path
       id="path14"
       d=""
       stroke="none"
       fill="#818181"
       fill-rule="evenodd" />
    <path
       id="path15"
       d=""
       stroke="none"
       fill="#8b8b8b"
       fill-rule="evenodd" />
    <path
       id="path16"
       d=""
       stroke="none"
       fill="#939393"
       fill-rule="evenodd" />
    <path
       id="path17"
       d=""
       stroke="none"
       fill="#9a9a9a"
       fill-rule="evenodd" />
    <path
       id="path18"
       d=""
       stroke="none"
       fill="#a1a1a1"
       fill-rule="evenodd" />
    <path
       id="path19"
       d=""
       stroke="none"
       fill="#a7a7a7"
       fill-rule="evenodd" />
    <path
       id="path20"
       d=""
       stroke="none"
       fill="#b2b2b2"
       fill-rule="evenodd" />
    <path
       id="path21"
       d=""
       stroke="none"
       fill="#bababa"
       fill-rule="evenodd" />
    <path
       id="path22"
       d=""
       stroke="none"
       fill="#c1c1c1"
       fill-rule="evenodd" />
    <path
       id="path23"
       d=""
       stroke="none"
       fill="#cacaca"
       fill-rule="evenodd" />
    <path
       id="path24"
       d=""
       stroke="none"
       fill="#d0d0d0"
       fill-rule="evenodd" />
    <path
       id="path29"
       d="m 219.922,25.781 c 0,0.779 -0.262,0.782 -70.606,0.786 -76.809,0.005 -72.343,-0.121 -76.893,2.181 -2.249,1.137 -6.113,4.706 -7.043,6.505 -0.313,0.605 -0.718,1.009 -0.899,0.897 -0.182,-0.112 -0.322,0.014 -0.313,0.28 0.048,1.336 -0.138,1.877 -0.556,1.619 -0.28,-0.173 -0.345,-0.108 -0.173,0.172 0.154,0.248 0.146,0.667 -0.017,0.93 -0.684,1.107 -0.727,10.515 -0.727,161.24 0,152.717 0.023,157.684 0.728,159.765 2.004,5.919 5.916,9.963 11.804,12.206 l 2.312,0.88 h 122.266 c 118.233,0 122.336,-0.024 124.414,-0.727 5.918,-2.005 9.963,-5.916 12.205,-11.804 l 0.881,-2.313 0.102,-105.566 0.101,-105.566 L 337.5,137.5 C 277.0297,76.960321 277.00953,76.972756 225.195,25.195 l -3.136,1.368 c -1.02474,0.447018 1.379,-0.148 1.379,-0.782 0,-0.665 -0.261,-0.781 -1.758,-0.781 -1.498,0 -1.758,0.116 -1.758,0.781"
       inkscape:connector-curvature="0"
       style="fill:#ececec;fill-rule:evenodd;stroke:none"
       sodipodi:nodetypes="cccccccccscccscccccccsssc" />
    <path
       id="path31"
       d="M78.573 25.402 C 71.608 26.415,65.278 31.825,63.506 38.281 C 63.358 38.818,63.797 38.165,64.482 36.829 C 66.017 33.830,69.612 30.170,72.412 28.753 C 76.974 26.445,72.488 26.572,149.316 26.567 C 219.660 26.563,219.922 26.560,219.922 25.781 C 219.922 24.960,84.118 24.595,78.573 25.402 "
       stroke="none"
       fill="#f1f1f1"
       fill-rule="evenodd" />
  </g>
  <g
     inkscape:groupmode="layer"
     id="layer1"
     inkscape:label="Color"
     style="display:inline">
    <g
       style="display:block;fill:#295497;fill-opacity:1"
       id="svgg-3">
      <path
         style="fill:#295497;fill-rule:evenodd;stroke:none;fill-opacity:1"
         inkscape:connector-curvature="0"
         id="path1-6"
         d="" />
      <path
         style="fill:#295497;fill-rule:evenodd;stroke:none;fill-opacity:1"
         inkscape:connector-curvature="0"
         id="path2-7"
         d="" />
      <path
         style="fill:#295497;fill-rule:evenodd;stroke:none;fill-opacity:1"
         inkscape:connector-curvature="0"
         id="path3-5"
         d="" />
      <path
         style="fill:#295497;fill-rule:evenodd;stroke:none;fill-opacity:1"
         inkscape:connector-curvature="0"
         id="path4-3"
         d="" />
      <path
         style="fill:#295497;fill-rule:evenodd;stroke:none;fill-opacity:1"
         inkscape:connector-curvature="0"
         id="path5-5"
         d="" />
      <path
         style="fill:#295497;fill-rule:evenodd;stroke:none;fill-opacity:1"
         inkscape:connector-curvature="0"
         id="path6-6"
         d="" />
      <path
         style="fill:#295497;fill-rule:evenodd;stroke:none;fill-opacity:1"
         inkscape:connector-curvature="0"
         id="path7-2"
         d="" />
      <path
         style="fill:#295497;fill-rule:evenodd;stroke:none;fill-opacity:1"
         inkscape:connector-curvature="0"
         id="path8-9"
         d="" />
      <path
         style="fill:#295497;fill-rule:evenodd;stroke:none;fill-opacity:1"
         inkscape:connector-curvature="0"
         id="path9-1"
         d="" />
      <path
         style="fill:#295497;fill-rule:evenodd;stroke:none;fill-opacity:1"
         inkscape:connector-curvature="0"
         id="path10-2"
         d="" />
      <path
         style="fill:#295497;fill-rule:evenodd;stroke:none;fill-opacity:1"
         inkscape:connector-curvature="0"
         id="path11-7"
         d="" />
      <path
         style="fill:#295497;fill-rule:evenodd;stroke:none;fill-opacity:1"
         inkscape:connector-curvature="0"
         id="path12-0"
         d="" />
      <path
         style="fill:#295497;fill-rule:evenodd;stroke:none;fill-opacity:1"
         inkscape:connector-curvature="0"
         id="path13-9"
         d="" />
      <path
         style="fill:#295497;fill-rule:evenodd;stroke:none;fill-opacity:1"
         inkscape:connector-curvature="0"
         id="path14-3"
         d="" />
      <path
         style="fill:#295497;fill-rule:evenodd;stroke:none;fill-opacity:1"
         inkscape:connector-curvature="0"
         id="path15-6"
         d="" />
      <path
         style="fill:#295497;fill-rule:evenodd;stroke:none;fill-opacity:1"
         inkscape:connector-curvature="0"
         id="path16-0"
         d="" />
      <path
         style="fill:#295497;fill-rule:evenodd;stroke:none;fill-opacity:1"
         inkscape:connector-curvature="0"
         id="path17-6"
         d="" />
      <path
         style="fill:#295497;fill-rule:evenodd;stroke:none;fill-opacity:1"
         inkscape:connector-curvature="0"
         id="path18-2"
         d="" />
      <path
         style="fill:#295497;fill-rule:evenodd;stroke:none;fill-opacity:1"
         inkscape:connector-curvature="0"
         id="path19-6"
         d="" />
      <path
         style="fill:#295497;fill-rule:evenodd;stroke:none;fill-opacity:1"
         inkscape:connector-curvature="0"
         id="path20-1"
         d="" />
      <path
         style="fill:#295497;fill-rule:evenodd;stroke:none;fill-opacity:1"
         inkscape:connector-curvature="0"
         id="path21-8"
         d="" />
      <path
         style="fill:#295497;fill-rule:evenodd;stroke:none;fill-opacity:1"
         inkscape:connector-curvature="0"
         id="path22-7"
         d="" />
      <path
         style="fill:#295497;fill-rule:evenodd;stroke:none;fill-opacity:1"
         inkscape:connector-curvature="0"
         id="path23-9"
         d="" />
      <path
         style="fill:#295497;fill-rule:evenodd;stroke:none;fill-opacity:1"
         inkscape:connector-curvature="0"
         id="path24-2"
         d="" />
      <path
         id="path29-0"
         d="m 219.922,25.781 c 0,0.779 -0.262,0.782 -70.606,0.786 -76.809,0.005 -72.343,-0.121 -76.893,2.181 -2.249,1.137 -6.113,4.706 -7.043,6.505 -0.313,0.605 -0.718,1.009 -0.899,0.897 -0.182,-0.112 -0.322,0.014 -0.313,0.28 0.048,1.336 -0.138,1.877 -0.556,1.619 -0.28,-0.173 -0.345,-0.108 -0.173,0.172 0.154,0.248 0.146,0.667 -0.017,0.93 -0.684,1.107 -0.727,10.515 -0.727,161.24 0,152.717 0.023,157.684 0.728,159.765 2.004,5.919 5.916,9.963 11.804,12.206 l 2.312,0.88 h 122.266 c 118.233,0 122.336,-0.024 124.414,-0.727 5.918,-2.005 9.963,-5.916 12.205,-11.804 l 0.881,-2.313 0.102,-105.566 0.101,-105.566 L 337.5,137.5 C 277.0297,76.960321 277.00953,76.972756 225.195,25.195 l -3.136,1.368 c -1.02474,0.447018 1.379,-0.148 1.379,-0.782 0,-0.665 -0.261,-0.781 -1.758,-0.781 -1.498,0 -1.758,0.116 -1.758,0.781"
         inkscape:connector-curvature="0"
         style="fill:#295497;fill-rule:evenodd;stroke:none;fill-opacity:1"
         sodipodi:nodetypes="cccccccccscccscccccccsssc" />
      <path
         style="fill:#295497;fill-rule:evenodd;stroke:none;fill-opacity:1"
         inkscape:connector-curvature="0"
         id="path31-2"
         d="m 78.573,25.402 c -6.965,1.013 -13.295,6.423 -15.067,12.879 -0.148,0.537 0.291,-0.116 0.976,-1.452 1.535,-2.999 5.13,-6.659 7.93,-8.076 4.562,-2.308 0.076,-2.181 76.904,-2.186 70.344,-0.004 70.606,-0.007 70.606,-0.786 0,-0.821 -135.804,-1.186 -141.349,-0.379" />
    </g>
    <path
       style="display:block;opacity:0.14800002;fill:#e7e7e7;fill-rule:evenodd;stroke:none;filter:url(#filter734)"
       id="path28-5"
       d="m 308.79526,-124.96339 c 0,0.634 -0.261,0.782 -1.379,0.782 h -1.378 l 0.109,50.488 0.108,50.487999 1.066,3.125 c 2.697,7.909 9.036,13.5980003 16.987,15.2420003 2.836,0.587 49.838,1.333 85.17,1.352 l 13.379,0.008 v -1.125 -1.126 l -23.34,-0.255 c -55.388,-0.606 -73.753,-0.943 -75.477,-1.386 -7.124,-1.829 -12.782,-7.5180003 -14.664,-14.7420003 -1.05,-4.030999 -0.858,-102.068999 0.2,-102.068999 0.521,0 0.781,-0.261 0.781,-0.782 0,-0.521 -0.26,-0.781 -0.781,-0.781 -0.521,0 -0.781,0.26 -0.781,0.781 m 3.499,1.27 c 1.619,1.724 1.969,2.035 1.969,1.741 0,-0.062 -0.835,-0.897 -1.855,-1.855 l -1.856,-1.742 1.742,1.856"
       inkscape:connector-curvature="0" />
  </g>
  <g
     inkscape:groupmode="layer"
     id="layer3"
     inkscape:label="App Icon">
    <path
       id="path0"
       d="m 263.9698,137.33638 c -0.27173,0.76763 -2.59435,17.22297 -7.65023,44.63024 -13.7376,74.45884 -13.2383,72.01668 -15.05378,73.72178 -2.69692,2.53387 -2.92449,1.76454 -12.29404,-41.89382 -18.84441,-87.79735 -17.02892,-80.10912 -19.33522,-81.86856 -1.96155,-1.49621 -3.42209,-1.55565 -16.1509,-0.64875 -14.00762,0.9986 -15.75857,1.24655 -17.76597,2.52028 -2.9075,1.84266 -0.98841,-5.67064 -19.76489,77.44957 -9.24727,40.93427 -9.37974,41.39451 -11.80492,41.03278 -1.94966,-0.28872 -2.45236,-2.47953 -8.26566,-36.1077 -2.7122,-15.69235 -5.54157,-32.04704 -6.28543,-36.34375 -0.74386,-4.29672 -2.49651,-14.46108 -3.89592,-22.58748 -3.82119,-22.19686 -2.4082,-20.9554 -22.0576,-19.37428 -10.295133,0.82878 -11.770963,1.33318 -12.771263,4.36126 -0.58082,1.76284 -0.54856,1.93776 7.345165,39.64186 4.028388,19.24012 10.290048,49.19654 13.914238,66.57021 10.81311,51.83911 11.04408,52.90904 11.86946,54.72113 1.8002,3.95706 2.43877,4.12859 19.93302,5.40401 15.10304,1.09881 16.37167,0.85595 18.22622,-3.48492 0.37873,-0.88822 5.2206,-21.79097 10.75708,-46.45038 12.53689,-55.82842 13.34868,-59.3592 14.16047,-61.52964 1.9055,-5.09152 4.01649,-4.47333 5.89312,1.72718 0.45514,1.5064 6.03238,26.20147 12.39424,54.87737 12.65577,57.04611 12.44179,56.16299 14.02801,57.96829 2.20779,2.5152 2.75295,2.612 22.78957,4.05556 14.29804,1.02917 15.32042,0.96803 17.3499,-1.06144 1.77304,-1.77303 1.8223,-1.95815 14.28107,-53.35399 6.47225,-26.69568 16.26638,-67.07631 21.7638,-89.73511 10.6297,-43.81801 7.7625,-32.15426 8.24294,-34.14258"
       inkscape:connector-curvature="0"
       style="display:block;opacity:1;fill:#ffffff;fill-rule:evenodd;stroke:none;stroke-width:1.69830632"
       sodipodi:nodetypes="ccccccccccsccccccccccccccsccc" />
  </g>
  <g
     inkscape:groupmode="layer"
     id="layer2"
     inkscape:label="Last"
     style="display:inline;opacity:1;">
    <path
       style="display:block;fill:#ffffff;fill-rule:evenodd;stroke:none;fill-opacity:0.4074074"
       id="path30"
       d="m 225.003,71.29 c 0.002,26.791 0.159,47.454 0.377,49.343 0.845,7.356 5.411,13.014 12.737,15.785 l 2.313,0.874 43.164,0.118 c 23.74,0.065 45.494,0.068 48.341,0.006 l 5.177,-0.111 L 281.056,81.251 225,25.196 225.003,71.29"
       inkscape:connector-curvature="0" />
  </g>
</svg>
