<?xml version="1.0" encoding="UTF-8" standalone="no"?>
<svg
   xmlns:dc="http://purl.org/dc/elements/1.1/"
   xmlns:cc="http://creativecommons.org/ns#"
   xmlns:rdf="http://www.w3.org/1999/02/22-rdf-syntax-ns#"
   xmlns:svg="http://www.w3.org/2000/svg"
   xmlns="http://www.w3.org/2000/svg"
   xmlns:sodipodi="http://sodipodi.sourceforge.net/DTD/sodipodi-0.dtd"
   xmlns:inkscape="http://www.inkscape.org/namespaces/inkscape"
   id="svg"
   version="1.1"
   width="400"
   height="400"
   style="display: block;"
   sodipodi:docname="powerpoint-32.svg"
   inkscape:version="0.92.2 (unknown)"
   enable-background="new">
  <metadata
     id="metadata3815">
    <rdf:RDF>
      <cc:Work
         rdf:about="">
        <dc:format>image/svg+xml</dc:format>
        <dc:type
           rdf:resource="http://purl.org/dc/dcmitype/StillImage" />
        <dc:title></dc:title>
      </cc:Work>
    </rdf:RDF>
  </metadata>
  <defs
     id="defs3813">
    <filter
       inkscape:collect="always"
       style="color-interpolation-filters:sRGB"
       id="filter734">
      <feBlend
         inkscape:collect="always"
         mode="color-burn"
         in2="BackgroundImage"
         id="feBlend736" />
    </filter>
  </defs>
  <sodipodi:namedview
     pagecolor="#ffffff"
     bordercolor="#666666"
     borderopacity="1"
     objecttolerance="10"
     gridtolerance="10"
     guidetolerance="10"
     inkscape:pageopacity="0"
     inkscape:pageshadow="2"
     inkscape:window-width="1280"
     inkscape:window-height="944"
     id="namedview3811"
     showgrid="false"
     inkscape:zoom="1.2887021"
     inkscape:cx="149.63187"
     inkscape:cy="133.11615"
     inkscape:window-x="0"
     inkscape:window-y="0"
     inkscape:window-maximized="1"
     inkscape:current-layer="layer1" />
  <g
     id="svgg">
    <path
       id="path1"
       d=""
       stroke="none"
       fill="#101010"
       fill-rule="evenodd" />
    <path
       id="path2"
       d=""
       stroke="none"
       fill="#181818"
       fill-rule="evenodd" />
    <path
       id="path3"
       d=""
       stroke="none"
       fill="#202020"
       fill-rule="evenodd" />
    <path
       id="path4"
       d=""
       stroke="none"
       fill="#262626"
       fill-rule="evenodd" />
    <path
       id="path5"
       d=""
       stroke="none"
       fill="#2f2f2f"
       fill-rule="evenodd" />
    <path
       id="path6"
       d=""
       stroke="none"
       fill="#3c3c3c"
       fill-rule="evenodd" />
    <path
       id="path7"
       d=""
       stroke="none"
       fill="#454545"
       fill-rule="evenodd" />
    <path
       id="path8"
       d=""
       stroke="none"
       fill="#4d4d4d"
       fill-rule="evenodd" />
    <path
       id="path9"
       d=""
       stroke="none"
       fill="#585858"
       fill-rule="evenodd" />
    <path
       id="path10"
       d=""
       stroke="none"
       fill="#676767"
       fill-rule="evenodd" />
    <path
       id="path11"
       d=""
       stroke="none"
       fill="#6d6d6d"
       fill-rule="evenodd" />
    <path
       id="path12"
       d=""
       stroke="none"
       fill="#737373"
       fill-rule="evenodd" />
    <path
       id="path13"
       d=""
       stroke="none"
       fill="#7b7b7b"
       fill-rule="evenodd" />
    <path
       id="path14"
       d=""
       stroke="none"
       fill="#818181"
       fill-rule="evenodd" />
    <path
       id="path15"
       d=""
       stroke="none"
       fill="#8b8b8b"
       fill-rule="evenodd" />
    <path
       id="path16"
       d=""
       stroke="none"
       fill="#939393"
       fill-rule="evenodd" />
    <path
       id="path17"
       d=""
       stroke="none"
       fill="#9a9a9a"
       fill-rule="evenodd" />
    <path
       id="path18"
       d=""
       stroke="none"
       fill="#a1a1a1"
       fill-rule="evenodd" />
    <path
       id="path19"
       d=""
       stroke="none"
       fill="#a7a7a7"
       fill-rule="evenodd" />
    <path
       id="path20"
       d=""
       stroke="none"
       fill="#b2b2b2"
       fill-rule="evenodd" />
    <path
       id="path21"
       d=""
       stroke="none"
       fill="#bababa"
       fill-rule="evenodd" />
    <path
       id="path22"
       d=""
       stroke="none"
       fill="#c1c1c1"
       fill-rule="evenodd" />
    <path
       id="path23"
       d=""
       stroke="none"
       fill="#cacaca"
       fill-rule="evenodd" />
    <path
       id="path24"
       d=""
       stroke="none"
       fill="#d0d0d0"
       fill-rule="evenodd" />
    <path
       id="path29"
       d="m 219.922,25.781 c 0,0.779 -0.262,0.782 -70.606,0.786 -76.809,0.005 -72.343,-0.121 -76.893,2.181 -2.249,1.137 -6.113,4.706 -7.043,6.505 -0.313,0.605 -0.718,1.009 -0.899,0.897 -0.182,-0.112 -0.322,0.014 -0.313,0.28 0.048,1.336 -0.138,1.877 -0.556,1.619 -0.28,-0.173 -0.345,-0.108 -0.173,0.172 0.154,0.248 0.146,0.667 -0.017,0.93 -0.684,1.107 -0.727,10.515 -0.727,161.24 0,152.717 0.023,157.684 0.728,159.765 2.004,5.919 5.916,9.963 11.804,12.206 l 2.312,0.88 h 122.266 c 118.233,0 122.336,-0.024 124.414,-0.727 5.918,-2.005 9.963,-5.916 12.205,-11.804 l 0.881,-2.313 0.102,-105.566 0.101,-105.566 L 337.5,137.5 C 277.0297,76.960321 277.00953,76.972756 225.195,25.195 l -3.136,1.368 c -1.02474,0.447018 1.379,-0.148 1.379,-0.782 0,-0.665 -0.261,-0.781 -1.758,-0.781 -1.498,0 -1.758,0.116 -1.758,0.781"
       inkscape:connector-curvature="0"
       style="fill:#ececec;fill-rule:evenodd;stroke:none"
       sodipodi:nodetypes="cccccccccscccscccccccsssc" />
    <path
       id="path31"
       d="M78.573 25.402 C 71.608 26.415,65.278 31.825,63.506 38.281 C 63.358 38.818,63.797 38.165,64.482 36.829 C 66.017 33.830,69.612 30.170,72.412 28.753 C 76.974 26.445,72.488 26.572,149.316 26.567 C 219.660 26.563,219.922 26.560,219.922 25.781 C 219.922 24.960,84.118 24.595,78.573 25.402 "
       stroke="none"
       fill="#f1f1f1"
       fill-rule="evenodd" />
  </g>
  <g
     inkscape:groupmode="layer"
     id="layer1"
     inkscape:label="Color"
     style="display:inline">
    <g
       style="display:block;fill:#d14424;fill-opacity:1"
       id="svgg-3">
      <path
         style="fill:#d14424;fill-rule:evenodd;stroke:none;fill-opacity:1"
         inkscape:connector-curvature="0"
         id="path1-6"
         d="" />
      <path
         style="fill:#d14424;fill-rule:evenodd;stroke:none;fill-opacity:1"
         inkscape:connector-curvature="0"
         id="path2-7"
         d="" />
      <path
         style="fill:#d14424;fill-rule:evenodd;stroke:none;fill-opacity:1"
         inkscape:connector-curvature="0"
         id="path3-5"
         d="" />
      <path
         style="fill:#d14424;fill-rule:evenodd;stroke:none;fill-opacity:1"
         inkscape:connector-curvature="0"
         id="path4-3"
         d="" />
      <path
         style="fill:#d14424;fill-rule:evenodd;stroke:none;fill-opacity:1"
         inkscape:connector-curvature="0"
         id="path5-5"
         d="" />
      <path
         style="fill:#d14424;fill-rule:evenodd;stroke:none;fill-opacity:1"
         inkscape:connector-curvature="0"
         id="path6-6"
         d="" />
      <path
         style="fill:#d14424;fill-rule:evenodd;stroke:none;fill-opacity:1"
         inkscape:connector-curvature="0"
         id="path7-2"
         d="" />
      <path
         style="fill:#d14424;fill-rule:evenodd;stroke:none;fill-opacity:1"
         inkscape:connector-curvature="0"
         id="path8-9"
         d="" />
      <path
         style="fill:#d14424;fill-rule:evenodd;stroke:none;fill-opacity:1"
         inkscape:connector-curvature="0"
         id="path9-1"
         d="" />
      <path
         style="fill:#d14424;fill-rule:evenodd;stroke:none;fill-opacity:1"
         inkscape:connector-curvature="0"
         id="path10-2"
         d="" />
      <path
         style="fill:#d14424;fill-rule:evenodd;stroke:none;fill-opacity:1"
         inkscape:connector-curvature="0"
         id="path11-7"
         d="" />
      <path
         style="fill:#d14424;fill-rule:evenodd;stroke:none;fill-opacity:1"
         inkscape:connector-curvature="0"
         id="path12-0"
         d="" />
      <path
         style="fill:#d14424;fill-rule:evenodd;stroke:none;fill-opacity:1"
         inkscape:connector-curvature="0"
         id="path13-9"
         d="" />
      <path
         style="fill:#d14424;fill-rule:evenodd;stroke:none;fill-opacity:1"
         inkscape:connector-curvature="0"
         id="path14-3"
         d="" />
      <path
         style="fill:#d14424;fill-rule:evenodd;stroke:none;fill-opacity:1"
         inkscape:connector-curvature="0"
         id="path15-6"
         d="" />
      <path
         style="fill:#d14424;fill-rule:evenodd;stroke:none;fill-opacity:1"
         inkscape:connector-curvature="0"
         id="path16-0"
         d="" />
      <path
         style="fill:#d14424;fill-rule:evenodd;stroke:none;fill-opacity:1"
         inkscape:connector-curvature="0"
         id="path17-6"
         d="" />
      <path
         style="fill:#d14424;fill-rule:evenodd;stroke:none;fill-opacity:1"
         inkscape:connector-curvature="0"
         id="path18-2"
         d="" />
      <path
         style="fill:#d14424;fill-rule:evenodd;stroke:none;fill-opacity:1"
         inkscape:connector-curvature="0"
         id="path19-6"
         d="" />
      <path
         style="fill:#d14424;fill-rule:evenodd;stroke:none;fill-opacity:1"
         inkscape:connector-curvature="0"
         id="path20-1"
         d="" />
      <path
         style="fill:#d14424;fill-rule:evenodd;stroke:none;fill-opacity:1"
         inkscape:connector-curvature="0"
         id="path21-8"
         d="" />
      <path
         style="fill:#d14424;fill-rule:evenodd;stroke:none;fill-opacity:1"
         inkscape:connector-curvature="0"
         id="path22-7"
         d="" />
      <path
         style="fill:#d14424;fill-rule:evenodd;stroke:none;fill-opacity:1"
         inkscape:connector-curvature="0"
         id="path23-9"
         d="" />
      <path
         style="fill:#d14424;fill-rule:evenodd;stroke:none;fill-opacity:1"
         inkscape:connector-curvature="0"
         id="path24-2"
         d="" />
      <path
         id="path29-0"
         d="m 219.922,25.781 c 0,0.779 -0.262,0.782 -70.606,0.786 -76.809,0.005 -72.343,-0.121 -76.893,2.181 -2.249,1.137 -6.113,4.706 -7.043,6.505 -0.313,0.605 -0.718,1.009 -0.899,0.897 -0.182,-0.112 -0.322,0.014 -0.313,0.28 0.048,1.336 -0.138,1.877 -0.556,1.619 -0.28,-0.173 -0.345,-0.108 -0.173,0.172 0.154,0.248 0.146,0.667 -0.017,0.93 -0.684,1.107 -0.727,10.515 -0.727,161.24 0,152.717 0.023,157.684 0.728,159.765 2.004,5.919 5.916,9.963 11.804,12.206 l 2.312,0.88 h 122.266 c 118.233,0 122.336,-0.024 124.414,-0.727 5.918,-2.005 9.963,-5.916 12.205,-11.804 l 0.881,-2.313 0.102,-105.566 0.101,-105.566 L 337.5,137.5 C 277.0297,76.960321 277.00953,76.972756 225.195,25.195 l -3.136,1.368 c -1.02474,0.447018 1.379,-0.148 1.379,-0.782 0,-0.665 -0.261,-0.781 -1.758,-0.781 -1.498,0 -1.758,0.116 -1.758,0.781"
         inkscape:connector-curvature="0"
         style="fill:#d14424;fill-rule:evenodd;stroke:none;fill-opacity:1"
         sodipodi:nodetypes="cccccccccscccscccccccsssc" />
      <path
         style="fill:#d14424;fill-rule:evenodd;stroke:none;fill-opacity:1"
         inkscape:connector-curvature="0"
         id="path31-2"
         d="m 78.573,25.402 c -6.965,1.013 -13.295,6.423 -15.067,12.879 -0.148,0.537 0.291,-0.116 0.976,-1.452 1.535,-2.999 5.13,-6.659 7.93,-8.076 4.562,-2.308 0.076,-2.181 76.904,-2.186 70.344,-0.004 70.606,-0.007 70.606,-0.786 0,-0.821 -135.804,-1.186 -141.349,-0.379" />
    </g>
    <path
       style="display:block;opacity:0.14800002;fill:#e7e7e7;fill-rule:evenodd;stroke:none;filter:url(#filter734)"
       id="path28-5"
       d="m 308.79526,-124.96339 c 0,0.634 -0.261,0.782 -1.379,0.782 h -1.378 l 0.109,50.488 0.108,50.487999 1.066,3.125 c 2.697,7.909 9.036,13.5980003 16.987,15.2420003 2.836,0.587 49.838,1.333 85.17,1.352 l 13.379,0.008 v -1.125 -1.126 l -23.34,-0.255 c -55.388,-0.606 -73.753,-0.943 -75.477,-1.386 -7.124,-1.829 -12.782,-7.5180003 -14.664,-14.7420003 -1.05,-4.030999 -0.858,-102.068999 0.2,-102.068999 0.521,0 0.781,-0.261 0.781,-0.782 0,-0.521 -0.26,-0.781 -0.781,-0.781 -0.521,0 -0.781,0.26 -0.781,0.781 m 3.499,1.27 c 1.619,1.724 1.969,2.035 1.969,1.741 0,-0.062 -0.835,-0.897 -1.855,-1.855 l -1.856,-1.742 1.742,1.856"
       inkscape:connector-curvature="0" />
  </g>
  <g
     inkscape:groupmode="layer"
     id="layer3"
     inkscape:label="App Icon">
    <path
       id="path0"
       d="m 190.1972,129.50969 c -3.41131,0.25136 -14.28179,1.03645 -24.15662,1.74483 -22.03802,1.5816 -22.33835,1.65995 -23.29645,6.13709 -0.52068,2.43198 -0.53047,170.34335 -0.0103,172.77043 0.89935,4.19151 2.31773,4.6779 16.54892,5.67192 13.34163,0.93198 14.50866,0.77855 16.22411,-2.13329 0.63492,-1.07889 0.65778,-1.84929 0.8161,-28.69252 l 0.16322,-27.58426 0.8161,-1.44122 c 1.55549,-2.74701 1.6926,-2.77476 15.34272,-2.99674 27.16477,-0.44395 42.3508,-7.48855 55.40191,-25.70068 14.99342,-20.92485 15.31334,-59.58035 0.65777,-79.49486 -11.15774,-15.15829 -28.27303,-20.50702 -58.50798,-18.2807 m 11.09899,33.68869 c 11.84816,3.16158 17.78775,12.27908 17.78775,27.30515 0,16.76927 -7.00705,26.46945 -21.3786,29.60165 -1.29924,0.28237 -4.53917,0.42765 -9.63001,0.42927 -8.79921,0.002 -9.27255,-0.12078 -10.77255,-2.78943 l -0.8161,-1.45267 -0.0947,-23.47436 c -0.111,-27.7491 -0.11589,-27.69686 3.24319,-29.43353 2.55765,-1.32372 16.94064,-1.44614 21.66098,-0.18608"
       inkscape:connector-curvature="0"
       style="display:block;fill:#ffffff;fill-rule:evenodd;stroke:none;stroke-width:1.63220406"
       sodipodi:nodetypes="ccccccccscccccsccccccc" />
  </g>
  <g
     inkscape:groupmode="layer"
     id="layer2"
     inkscape:label="Last"
     style="display:inline;opacity:1;">
    <path
       style="display:block;fill:#ffffff;fill-rule:evenodd;stroke:none;fill-opacity:0.4074074"
       id="path30"
       d="m 225.003,71.29 c 0.002,26.791 0.159,47.454 0.377,49.343 0.845,7.356 5.411,13.014 12.737,15.785 l 2.313,0.874 43.164,0.118 c 23.74,0.065 45.494,0.068 48.341,0.006 l 5.177,-0.111 L 281.056,81.251 225,25.196 225.003,71.29"
       inkscape:connector-curvature="0" />
  </g>
</svg>
