<?xml version="1.0" encoding="UTF-8" standalone="no"?>
<svg id="svg" xmlns:rdf="http://www.w3.org/1999/02/22-rdf-syntax-ns#" xmlns="http://www.w3.org/2000/svg" display="block" height="400" width="400" version="1.1" enable-background="new" xmlns:cc="http://creativecommons.org/ns#" xmlns:dc="http://purl.org/dc/elements/1.1/">
    <metadata>
        <rdf:RDF>
            <cc:Work rdf:about="">
                <dc:format>image/svg+xml</dc:format>
                <dc:type rdf:resource="http://purl.org/dc/dcmitype/StillImage"/>
                <dc:title/>
            </cc:Work>
        </rdf:RDF>
    </metadata>
    <defs>
        <filter id="filter616" style="color-interpolation-filters:sRGB">
            <feBlend in2="BackgroundImage" mode="color-burn"/>
        </filter>
    </defs>
    <g id="svgg" fill-rule="evenodd">
        <g></g>
        <path d="m219.92 25.781c0 0.779-0.262 0.782-70.606 0.786-76.809 0.005-72.343-0.121-76.893 2.181-2.249 1.137-6.113 4.706-7.043 6.505-0.313 0.605-0.718 1.009-0.899 0.897-0.182-0.112-0.322 0.014-0.313 0.28 0.048 1.336-0.138 1.877-0.556 1.619-0.28-0.173-0.345-0.108-0.173 0.172 0.154 0.248 0.146 0.667-0.017 0.93-0.684 1.107-0.727 10.515-0.727 161.24 0 18.256-20.175-10.993-20.173 3.2875 0.0021 16.982 20.182 76.722 20.19 88.849 0.04221 62.983 0.19096 66.092 0.71146 67.629 2.004 5.919 5.916 9.963 11.804 12.206l2.312 0.88h122.27c118.23 0 122.34-0.024 124.41-0.727 5.918-2.005 9.963-5.916 12.205-11.804l0.881-2.313 0.102-105.57 0.101-105.57-0.008-9.766c-27.516-18.126-39.059-25.986-41.896-26.573-7.951-1.644-8.9402-0.74864-11.637-8.6576l-5.3184-5.457-7.5154-8.787-45.94-62.831-3.136 1.368c-1.0247 0.44702 1.379-0.148 1.379-0.782 0-0.665-0.261-0.781-1.758-0.781-1.498 0-1.758 0.116-1.758 0.781" fill="#ececec"/>
        <path fill="#f1f1f1" d="m78.573 25.402c-6.965 1.013-13.295 6.423-15.067 12.879-0.148 0.537 0.291-0.116 0.976-1.452 1.535-2.999 5.13-6.659 7.93-8.076 4.562-2.308 0.076-2.181 76.908-2.186 70.34-0.004 70.6-0.007 70.6-0.786 0-0.821-135.8-1.186-141.35-0.379"/>
    </g>
    <g fill-rule="evenodd" fill="#9a9a9a">
        <path d="m85.576 151.84 139.21 0.095 72.967-0.1v-12.886l-72.344-0.19399h-139.64" display="block"/>
        <path d="m120.24 181.84 116.56 0.095 61.092-0.1v-12.886l-60.571-0.19399h-116.91" display="block"/>
        <path d="m85.576 121.84 130.05 0.095 68.164-0.1v-12.886l-67.582-0.19399h-130.44" display="block"/>
        <path d="m85.576 91.837 112.23 0.095 58.824-0.1v-12.886l-58.322-0.19399h-112.57" display="block"/>
        <path d="m126.7 211.84 64.88 0.095 34.007-0.1v-12.886l-33.716-0.19399h-65.074" display="block"/>
        <path d="m127.87 241.84 110.19 0.095 57.757-0.1v-12.886l-57.264-0.19399h-110.53" display="block"/>
        <path d="m122.05 271.84 115.28 0.095 60.425-0.1v-12.886l-59.909-0.19399h-115.63" display="block"/>
        <path d="m82.472 301.84 143.03 0.095 74.969-0.1v-12.886l-74.329-0.19399h-143.46" display="block"/>
        <path d="m121.79 331.84 115.45 0.095 60.514-0.1v-12.886l-59.997-0.19399h-115.79" display="block"/>
    </g>
    <path d="m291.43 354.07 25.678 1.6052 13.459-1.6896v-217.73l-13.344-3.2777h-25.755" fill-rule="evenodd" display="block" fill="#ececec"/>
    <g display="inline">
        <g display="block" transform="matrix(.57682 0 0 .57682 14.779 124.2)">
            <path d="m221.3 24.329c-0.33 0.052-4.38 0.805-9 1.674-10.88 2.047-120.42 22.687-160.89 30.315-31.944 6.021-32.979 6.243-33.876 7.255-0.834 0.941-1.21 1.941-1.211 3.227-0.001 0.715-0.035 1.051-0.075 0.747-0.04-0.305-0.156-0.502-0.259-0.439-0.252 0.157-0.252 265.69 0.001 265.69 0.102 0 0.219-0.247 0.259-0.55s0.072 0.035 0.071 0.75c-0.002 3.15 1.358 4.136 7.283 5.279 44.879 8.653 197.48 37.188 199.32 37.27 3.92 0.175 5.72-0.858 6.174-3.542 0.075-0.444 0.218-0.807 0.319-0.807-0.321-343.45-0.319 0.807-0.006-342.6-0.103 0-0.245-0.382-0.315-0.85-0.403-2.672-3.599-4.075-7.797-3.421m-40.027 115.75c2.297 0.959 2.482-0.227-4.358 27.966-3.237 13.342-9.004 37.119-12.815 52.838-7.336 30.263-7.365 30.372-8.409 31.416-1.195 1.195-1.797 1.231-10.216 0.625-11.798-0.85-12.119-0.907-13.419-2.388-0.934-1.063-0.808-0.543-8.26-34.133-3.746-16.885-7.03-31.426-7.298-32.313-1.105-3.651-2.348-4.015-3.47-1.017-0.478 1.278-0.956 3.357-8.338 36.23-3.26 14.52-6.111 26.828-6.334 27.351-1.092 2.556-1.839 2.699-10.732 2.052-10.301-0.751-10.677-0.852-11.737-3.182-0.486-1.067-0.622-1.697-6.989-32.221-2.134-10.23-5.821-27.869-8.193-39.198-4.648-22.201-4.667-22.304-4.325-23.342 0.589-1.783 1.458-2.08 7.52-2.568 11.57-0.931 10.738-1.662 12.988 11.408 0.824 4.785 1.856 10.77 2.294 13.3s2.104 12.16 3.701 21.4c3.423 19.801 3.719 21.091 4.867 21.261 1.428 0.213 1.506-0.058 6.951-24.161 11.056-48.943 9.926-44.519 11.638-45.604 1.383-0.877 15.785-2.28 18.342-1.786 2.623 0.507 2.62 0.499 6.025 16.342 1.577 7.341 4.722 21.988 6.989 32.548 5.517 25.707 5.651 26.16 7.239 24.668 1.069-1.004 0.775 0.434 8.864-43.409 2.977-16.138 5.544-29.711 5.704-30.163 0.854-2.421 1.893-2.904 7.132-3.311 2.126-0.166 5.396-0.421 7.266-0.568 4.639-0.364 6.574-0.375 7.373-0.041" fill-rule="evenodd" fill="#295497"/>
        </g>
    </g>
    <g fill-rule="evenodd" display="inline" filter="url(#filter616)">
        <path d="m223.44 76.48c0 42.949 0.081 50.23 0.581 52.152 1.882 7.225 7.544 12.916 14.664 14.742 1.84 0.471 22.253 0.853 71.766 1.342l27.051 0.267v-2.795l-4.785 0.003c-20.855 0.013-88.963-0.876-91.309-1.192-7.24-0.977-14.503-7.484-14.62-13.101-0.016-0.733-0.131-1.334-0.256-1.334-0.125-0.001-0.244-0.221-0.264-0.49-0.02-0.268-0.311-1.455-0.646-2.636-0.538-1.895-0.611-7.757-0.615-49.512-0.005-47.102-0.009-47.363-0.786-47.363s-0.781 0.26-0.781 49.917m59.179 6.333c29.648 29.648 53.993 53.906 54.101 53.906 0.107 0-24.062-24.258-53.71-53.907-29.648-29.648-53.993-53.906-54.101-53.906-0.107 0 24.062 24.258 53.71 53.907m-52.539 49.023c0.729 0.752 1.413 1.367 1.521 1.367 0.107 0-0.401-0.615-1.13-1.367s-1.413-1.367-1.521-1.367c-0.107 0 0.401 0.615 1.13 1.367m-166.39 230.38c-0.123 4.35 8.488 11.44 15.031 12.376 3.762 0.537 238.82 0.537 242.58 0 6.54-0.935 13.338-6.305 14.816-11.703 0.147-0.537-0.293-0.04-0.977 1.106-2.566 4.293-6.935 7.65-11.501 8.84-3.513 0.915-243.74 0.915-247.25 0-4.585-1.195-8.994-4.593-11.47-8.84-0.668-1.146-1.218-1.946-1.223-1.779" display="block" fill="#e1e1e1"/>
        <path d="m226.71 128.12c1.143 6.31 7.534 11.908 14.695 12.874 2.346 0.316 70.454 1.205 91.309 1.192l4.785-0.003v-4.688h-48.16c-42.266 0-48.445-0.074-50.488-0.606-4.318-1.125-8.381-4.037-10.831-7.765-1.468-2.235-1.543-2.293-1.31-1.004" display="block" fill="#d6d6d6"/>
        <path opacity="0.148" d="m223.44 25.781c0 0.634-0.261 0.782-1.379 0.782h-1.378l0.109 50.488 0.108 50.488 1.066 3.125c2.697 7.909 9.036 13.598 16.987 15.242 2.836 0.587 49.838 1.333 85.17 1.352l13.379 0.008v-2.251l-23.34-0.255c-55.388-0.606-73.753-0.943-75.477-1.386-7.124-1.829-12.782-7.518-14.664-14.742-1.05-4.031-0.858-102.07 0.2-102.07 0.521 0 0.781-0.261 0.781-0.782 0-0.52-0.26-0.78-0.78-0.78-0.521 0-0.781 0.26-0.781 0.781m3.499 1.27c1.619 1.724 1.969 2.035 1.969 1.741 0-0.062-0.835-0.897-1.855-1.855l-1.856-1.742 1.742 1.856" display="block" fill="#e7e7e7"/>
        <path d="m223.44 25.781c0 0.634-0.261 0.782-1.379 0.782h-1.378l0.109 50.488 0.108 50.488 1.066 3.125c2.697 7.909 9.036 13.598 16.987 15.242 2.836 0.587 49.838 1.333 85.17 1.352l13.379 0.008v-2.251l-23.34-0.255c-55.388-0.606-73.753-0.943-75.477-1.386-7.124-1.829-12.782-7.518-14.664-14.742-1.05-4.031-0.858-102.07 0.2-102.07 0.521 0 0.781-0.261 0.781-0.782 0-0.52-0.26-0.78-0.78-0.78-0.521 0-0.781 0.26-0.781 0.781m3.499 1.27c1.619 1.724 1.969 2.035 1.969 1.741 0-0.062-0.835-0.897-1.855-1.855l-1.856-1.742 1.742 1.856" display="block" fill="#e7e7e7"/>
    </g>
    <g display="inline">
        <path d="m225 71.29c0.002 26.791 0.159 47.454 0.377 49.343 0.845 7.356 5.411 13.014 12.737 15.785l2.313 0.874 43.164 0.118c23.74 0.065 45.494 0.068 48.341 0.006l5.177-0.111-56.05-56.059-56.06-56.055v46.094" fill-rule="evenodd" display="block" fill="#f2f2f2"/>
    </g>
</svg>
