<?xml version="1.0" encoding="UTF-8" standalone="no"?>
<svg id="svg" xmlns:rdf="http://www.w3.org/1999/02/22-rdf-syntax-ns#" xmlns="http://www.w3.org/2000/svg" display="block" height="400" width="400" version="1.1" enable-background="new" xmlns:cc="http://creativecommons.org/ns#" xmlns:dc="http://purl.org/dc/elements/1.1/">
    <metadata>
        <rdf:RDF>
            <cc:Work rdf:about="">
                <dc:format>image/svg+xml</dc:format>
                <dc:type rdf:resource="http://purl.org/dc/dcmitype/StillImage"/>
                <dc:title/>
            </cc:Work>
        </rdf:RDF>
    </metadata>
    <defs>
        <filter id="filter734" style="color-interpolation-filters:sRGB">
            <feBlend in2="BackgroundImage" mode="color-burn"/>
        </filter>
    </defs>
    <g id="svgg" fill-rule="evenodd">
        <g></g>
        <path d="m219.92 25.781c0 0.779-0.262 0.782-70.606 0.786-76.809 0.005-72.343-0.121-76.893 2.181-2.249 1.137-6.113 4.706-7.043 6.505-0.313 0.605-0.718 1.009-0.899 0.897-0.182-0.112-0.322 0.014-0.313 0.28 0.048 1.336-0.138 1.877-0.556 1.619-0.28-0.173-0.345-0.108-0.173 0.172 0.154 0.248 0.146 0.667-0.017 0.93-0.66595 1.0778-0.72428 10.024-0.7269 149.6-0.000071 3.783-16.461 6.5645-16.461 10.542 0 29.152 0.6161 57.309 0.62236 76.701 0.0038 11.783 15.855 18.658 15.864 27.435 0.0528 52.455 0.2138 55.284 0.70246 56.726 2.004 5.919 5.916 9.963 11.804 12.206l2.312 0.88h122.27c118.23 0 122.34-0.024 124.41-0.727 5.918-2.005 9.963-5.916 12.205-11.804l0.881-2.313 0.102-105.57 0.101-105.57-0.008-9.766c-27.516-18.126-39.059-25.986-41.896-26.573-7.951-1.644-8.9402-0.74864-11.637-8.6576l-5.3184-5.457-7.5154-8.787-45.93-62.821-3.136 1.368c-1.0247 0.44702 1.379-0.148 1.379-0.782 0-0.665-0.261-0.781-1.758-0.781-1.498 0-1.758 0.116-1.758 0.781" fill="#ececec"/>
        <path fill="#f1f1f1" d="m78.573 25.402c-6.965 1.013-13.295 6.423-15.067 12.879-0.148 0.537 0.291-0.116 0.976-1.452 1.535-2.999 5.13-6.659 7.93-8.076 4.562-2.308 0.076-2.181 76.908-2.186 70.34-0.004 70.6-0.007 70.6-0.786 0-0.821-135.8-1.186-141.35-0.379"/>
    </g>
    <g>
        <g fill="#989898">
            <rect height="45.542" width="91.084" y="79.012" x="102.61"/>
            <rect height="45.542" width="28.597" display="block" y="79.013" x="206.31" stroke-width=".56032"/>
            <rect height="45.542" width="56.491" display="block" y="149.01" x="137.2" stroke-width=".78753"/>
        </g>
        <g fill="#85be9f">
            <rect height="45.542" width="91.084" display="block" y="149.01" x="206.31"/>
            <rect height="45.542" width="52.395" display="block" y="219.01" x="141.29" stroke-width=".75845"/>
            <rect height="45.542" width="91.084" display="block" y="219.01" x="206.31"/>
            <rect height="45.542" width="64.198" display="block" y="289.01" x="129.49" stroke-width=".83954"/>
            <rect height="45.542" width="91.084" display="block" y="289.01" x="206.31"/>
        </g>
    </g>
    <g display="block" transform="matrix(.57130 0 0 .57251 15.769 124.28)">
        <path d="m221.5 24.326c-0.33 0.05-1.995 0.354-3.7 0.675-148.4 27.964-195.56 36.863-196.69 37.113-3.186 0.707-4.415 1.743-4.805 4.049-0.077 0.459-0.223 0.886-0.323 0.948-0.246 0.151-0.246 265.63 0 265.78 0.1 0.062 0.246 0.489 0.323 0.948 0.131 0.777 0.646 1.906 1.153 2.529 0.959 1.178-3.607 0.24 54.141 11.122 27.115 5.109 71.8 13.536 99.3 18.726 53.75 10.145 52.933 10.008 55.415 9.294 1.76-0.507 2.685-1.53 2.984-3.301 0.31403-169.88 0.31028-169.87 0.313-343.5-0.104-0.064-0.246-0.497-0.316-0.962-0.402-2.668-3.565-4.056-7.796-3.419m-63.409 113.36c1.62 0.677 1.67 2.007 0.187 4.962-0.828 1.648-7.745 14.849-22.141 42.255-5.386 10.254-5.526 10.564-5.532 12.246-0.007 1.862-1.528-1.117 22.893 44.854 7.194 13.542 7.024 13.17 6.658 14.564-0.422 1.607-0.878 1.637-12.645 0.838-12.118-0.823-12.465-0.885-13.881-2.499-0.895-1.019-1.004-1.25-9.023-19.212-8.32-18.637-8.689-19.436-9.256-20.041-0.531-0.568-1.418-0.583-1.969-0.032-0.506 0.506-0.423 0.33-8.281 17.482-9.394 20.501-8.969 19.755-11.547 20.288-1.19 0.245-17.172-0.785-18.638-1.203-1.675-0.476-2.297-1.808-1.684-3.605 0.128-0.374 5.181-9.95 11.229-21.28s11.752-22.015 12.674-23.744c2.424-4.54 2.73-5.78 1.975-7.999-0.177-0.519-5.459-11.454-11.738-24.3-13.026-26.648-12.558-25.592-11.938-26.953 0.614-1.347 1.563-1.527 11.599-2.207 11.079-0.751 11.241-0.721 12.796 2.361 0.58 1.149 10.68 25.636 12.515 30.342 2.538 6.509 3.651 6.641 5.9 0.7 0.825-2.178 13.372-30.148 14.804-33 1.85-3.684 1.879-3.694 13.002-4.49 9.292-0.665 11.113-0.714 12.041-0.327" fill-rule="evenodd" fill="#1f7244"/>
    </g>
    <g fill-rule="evenodd" display="inline" filter="url(#filter734)">
        <path d="m223.44 76.48c0 42.949 0.081 50.23 0.581 52.152 1.882 7.225 7.544 12.916 14.664 14.742 1.84 0.471 22.253 0.853 71.766 1.342l27.051 0.267v-2.795l-4.785 0.003c-20.855 0.013-88.963-0.876-91.309-1.192-7.24-0.977-14.503-7.484-14.62-13.101-0.016-0.733-0.131-1.334-0.256-1.334-0.125-0.001-0.244-0.221-0.264-0.49-0.02-0.268-0.311-1.455-0.646-2.636-0.538-1.895-0.611-7.757-0.615-49.512-0.005-47.102-0.009-47.363-0.786-47.363s-0.781 0.26-0.781 49.917m59.179 6.333c29.648 29.648 53.993 53.906 54.101 53.906 0.107 0-24.062-24.258-53.71-53.907-29.648-29.648-53.993-53.906-54.101-53.906-0.107 0 24.062 24.258 53.71 53.907m-52.539 49.023c0.729 0.752 1.413 1.367 1.521 1.367 0.107 0-0.401-0.615-1.13-1.367s-1.413-1.367-1.521-1.367c-0.107 0 0.401 0.615 1.13 1.367m-166.39 230.38c-0.123 4.35 8.488 11.44 15.031 12.376 3.762 0.537 238.82 0.537 242.58 0 6.54-0.935 13.338-6.305 14.816-11.703 0.147-0.537-0.293-0.04-0.977 1.106-2.566 4.293-6.935 7.65-11.501 8.84-3.513 0.915-243.74 0.915-247.25 0-4.585-1.195-8.994-4.593-11.47-8.84-0.668-1.146-1.218-1.946-1.223-1.779" display="block" fill="#e1e1e1"/>
        <path d="m226.71 128.12c1.143 6.31 7.534 11.908 14.695 12.874 2.346 0.316 70.454 1.205 91.309 1.192l4.785-0.003v-4.688h-48.16c-42.266 0-48.445-0.074-50.488-0.606-4.318-1.125-8.381-4.037-10.831-7.765-1.468-2.235-1.543-2.293-1.31-1.004" display="block" fill="#d6d6d6"/>
        <path opacity="0.148" d="m223.44 25.781c0 0.634-0.261 0.782-1.379 0.782h-1.378l0.109 50.488 0.108 50.488 1.066 3.125c2.697 7.909 9.036 13.598 16.987 15.242 2.836 0.587 49.838 1.333 85.17 1.352l13.379 0.008v-2.251l-23.34-0.255c-55.388-0.606-73.753-0.943-75.477-1.386-7.124-1.829-12.782-7.518-14.664-14.742-1.05-4.031-0.858-102.07 0.2-102.07 0.521 0 0.781-0.261 0.781-0.782 0-0.52-0.26-0.78-0.78-0.78-0.521 0-0.781 0.26-0.781 0.781m3.499 1.27c1.619 1.724 1.969 2.035 1.969 1.741 0-0.062-0.835-0.897-1.855-1.855l-1.856-1.742 1.742 1.856" display="block" fill="#e7e7e7"/>
        <path d="m223.44 25.781c0 0.634-0.261 0.782-1.379 0.782h-1.378l0.109 50.488 0.108 50.488 1.066 3.125c2.697 7.909 9.036 13.598 16.987 15.242 2.836 0.587 49.838 1.333 85.17 1.352l13.379 0.008v-2.251l-23.34-0.255c-55.388-0.606-73.753-0.943-75.477-1.386-7.124-1.829-12.782-7.518-14.664-14.742-1.05-4.031-0.858-102.07 0.2-102.07 0.521 0 0.781-0.261 0.781-0.782 0-0.52-0.26-0.78-0.78-0.78-0.521 0-0.781 0.26-0.781 0.781m3.499 1.27c1.619 1.724 1.969 2.035 1.969 1.741 0-0.062-0.835-0.897-1.855-1.855l-1.856-1.742 1.742 1.856" display="block" fill="#e7e7e7"/>
    </g>
    <g display="inline">
        <path d="m225 71.29c0.002 26.791 0.159 47.454 0.377 49.343 0.845 7.356 5.411 13.014 12.737 15.785l2.313 0.874 43.164 0.118c23.74 0.065 45.494 0.068 48.341 0.006l5.177-0.111-56.05-56.059-56.06-56.055v46.094" fill-rule="evenodd" display="block" fill="#f2f2f2"/>
    </g>
</svg>
