<?xml version="1.0" encoding="UTF-8" standalone="no"?>
<svg id="svg" xmlns:rdf="http://www.w3.org/1999/02/22-rdf-syntax-ns#" xmlns="http://www.w3.org/2000/svg" display="block" height="400" width="400" version="1.1" enable-background="new" xmlns:cc="http://creativecommons.org/ns#" xmlns:dc="http://purl.org/dc/elements/1.1/">
    <metadata>
        <rdf:RDF>
            <cc:Work rdf:about="">
                <dc:format>image/svg+xml</dc:format>
                <dc:type rdf:resource="http://purl.org/dc/dcmitype/StillImage"/>
                <dc:title/>
            </cc:Work>
        </rdf:RDF>
    </metadata>
    <defs>
        <filter id="filter734" style="color-interpolation-filters:sRGB">
            <feBlend in2="BackgroundImage" mode="color-burn"/>
        </filter>
    </defs>
    <g id="svgg" fill-rule="evenodd">
        <g></g>
        <path d="m219.92 25.781c0 0.779-0.262 0.782-70.606 0.786-76.809 0.005-72.343-0.121-76.893 2.181-2.249 1.137-6.113 4.706-7.043 6.505-0.313 0.605-0.718 1.009-0.899 0.897-0.182-0.112-0.322 0.014-0.313 0.28 0.048 1.336-0.138 1.877-0.556 1.619-0.28-0.173-0.345-0.108-0.173 0.172 0.154 0.248 0.146 0.667-0.017 0.93-0.684 1.107-0.727 10.515-0.727 161.24 0 152.72 0.023 157.68 0.728 159.76 2.004 5.919 5.916 9.963 11.804 12.206l2.312 0.88h122.27c118.23 0 122.34-0.024 124.41-0.727 5.918-2.005 9.963-5.916 12.205-11.804l0.881-2.313 0.102-105.57 0.101-105.57-0.008-9.766c-27.516-18.126-39.059-25.986-41.896-26.573-7.951-1.644-8.9402-0.74864-11.637-8.6576l-5.3184-5.457-7.5154-8.787-45.94-62.821-3.136 1.368c-1.0247 0.44702 1.379-0.148 1.379-0.782 0-0.665-0.261-0.781-1.758-0.781-1.498 0-1.758 0.116-1.758 0.781" fill="#ececec"/>
        <path fill="#f1f1f1" d="m78.573 25.402c-6.965 1.013-13.295 6.423-15.067 12.879-0.148 0.537 0.291-0.116 0.976-1.452 1.535-2.999 5.13-6.659 7.93-8.076 4.562-2.308 0.076-2.181 76.908-2.186 70.34-0.004 70.6-0.007 70.6-0.786 0-0.821-135.8-1.186-141.35-0.379"/>
    </g>
    <path d="m199.03 88.58c-0.57105 0.26222-1.4695 1.0409-1.9966 1.7318l-0.95839 1.2566v58.726l1.0289 1.2778c1.9567 2.4332-0.23428 2.2775 31.916 2.2775 32.314 0 30.105 0.15707 31.912-2.2735 1.0369-1.3963 0.93444-6.7367-0.22495-11.703-6.0272-25.811-25.303-44.927-51.185-50.764-4.0905-0.92112-9.0834-1.1727-10.492-0.52844m-33.404 21.737c-23.388 1.8322-35.894 15.31-42.531 24.705-19.941 27.321-21.337 71.909 17.748 98.034l1.1965 0.99706c5.4684 3.769 5.4244 3.8219 12.872 5.9663 36.658 10.552 74.098-11.073 83.219-48.067 2.3028-9.343 1.9887-12.857-1.3244-14.808-1.1008-0.64825-1.8862-0.66955-29.915-0.83194-31.611-0.18236-29.912-0.0692-31.732-2.1298-1.3817-1.564-1.3737-1.403-1.5454-30.981-0.17438-29.951-0.1584-29.634-1.6026-31.232-1.1767-1.2992-3.6858-1.9487-6.384-1.6519m-20.632 155.45c-2.3733 1.2406-2.8286 2.9098-2.8286 10.38 0 6.2628 0.0293 6.5463 0.83194 8.1304 1.6 3.156-4.5084 2.8712 59.262 2.7714l56.102-0.0865 1.371-0.95041c2.2083-1.5308 2.565-2.9031 2.565-9.8648 0-6.9616-0.35673-8.334-2.565-9.8648l-1.371-0.95041-56.102-0.0865c-53.812-0.0839-56.148-0.0626-57.265 0.52179m1.0036 43.995c-3.1773 0.7534-4.1224 3.6153-3.9467 11.935 0.13311 6.2761 0.62695 7.8175 2.9431 9.1739 1.162 0.68152 1.3018 0.68285 56.904 0.68285h55.74l1.4975-0.83193c2.7021-1.5015 3.1614-2.975 3.1614-10.15 0-7.3823-0.46988-8.8545-3.3278-10.43-1.1022-0.60831-110.46-0.97436-112.97-0.37936" fill-rule="evenodd" display="block" fill="#ff8a65"/>
    <path d="m142.43 138.23c-0.26433 0.0509-11.815 2.2279-86.737 16.344-29.36 5.5315-28.406 5.3461-29.194 5.6848-0.78155 0.33642-1.2553 0.97493-1.4126 1.907-0.0441 0.26261-0.12759 0.50692-0.1848 0.54239-0.13617 0.0835-0.14075 152.09-0.005 152.17 0.0543 0.0337 0.13216 0.26776 0.17278 0.52008 0.0675 0.42453 0.38391 1.1117 0.67685 1.4721 0.2712 0.33299 1.3171 0.73635 2.5821 0.99496 8.9089 1.8211 114.02 21.493 115.09 21.54 2.244 0.0973 3.2732-0.49376 3.5324-2.0282-0.0183-102.13-0.0372-102.23-0.0538-197.35-0.36274-1.4567-2.2754-2.2291-4.4656-1.8034m-53.152 66.183c9.4919 1.0533 14.755 6.4057 16.033 16.304 1.7691 13.707-5.3438 24.522-17.577 26.725-1.2456 0.22428-1.9699 0.26662-5.607 0.32612-4.7848 0.0778-4.8329 0.0875-5.3782 1.0505l-0.28607 0.5052-0.0572 9.6692c-0.0555 9.4095-0.0635 9.6795-0.28607 10.058-0.60133 1.0207-1.0104 1.0745-5.6871 0.74779-4.9885-0.34843-5.4857-0.51893-5.801-1.9882-0.18251-0.85078-0.17908-59.71 0.003-60.562 0.33585-1.5694 0.44112-1.5969 8.1662-2.1513 3.4615-0.24831 7.272-0.52351 8.4677-0.61162 2.6267-0.19338 6.5991-0.23 8.01-0.0732m-10.725 11.673c-2.2033 0.34329-2.1661 0.15619-2.1244 10.592l0.0332 8.2286 0.28607 0.5092c0.5258 0.93546 0.69172 0.97837 3.7762 0.9778 3.3099-0.001 4.4776-0.21913 6.3508-1.1843 6.0424-3.1142 6.1483-15.254 0.15906-18.198-1.8349-0.9017-5.8307-1.3371-8.4809-0.92458" fill-rule="evenodd" display="block" fill="#d14424"/>
    <g fill-rule="evenodd" display="inline" filter="url(#filter734)">
        <path d="m223.44 76.48c0 42.949 0.081 50.23 0.581 52.152 1.882 7.225 7.544 12.916 14.664 14.742 1.84 0.471 22.253 0.853 71.766 1.342l27.051 0.267v-2.795l-4.785 0.003c-20.855 0.013-88.963-0.876-91.309-1.192-7.24-0.977-14.503-7.484-14.62-13.101-0.016-0.733-0.131-1.334-0.256-1.334-0.125-0.001-0.244-0.221-0.264-0.49-0.02-0.268-0.311-1.455-0.646-2.636-0.538-1.895-0.611-7.757-0.615-49.512-0.005-47.102-0.009-47.363-0.786-47.363s-0.781 0.26-0.781 49.917m59.179 6.333c29.648 29.648 53.993 53.906 54.101 53.906 0.107 0-24.062-24.258-53.71-53.907-29.648-29.648-53.993-53.906-54.101-53.906-0.107 0 24.062 24.258 53.71 53.907m-52.539 49.023c0.729 0.752 1.413 1.367 1.521 1.367 0.107 0-0.401-0.615-1.13-1.367s-1.413-1.367-1.521-1.367c-0.107 0 0.401 0.615 1.13 1.367m-166.39 230.38c-0.123 4.35 8.488 11.44 15.031 12.376 3.762 0.537 238.82 0.537 242.58 0 6.54-0.935 13.338-6.305 14.816-11.703 0.147-0.537-0.293-0.04-0.977 1.106-2.566 4.293-6.935 7.65-11.501 8.84-3.513 0.915-243.74 0.915-247.25 0-4.585-1.195-8.994-4.593-11.47-8.84-0.668-1.146-1.218-1.946-1.223-1.779" display="block" fill="#e1e1e1"/>
        <path d="m226.71 128.12c1.143 6.31 7.534 11.908 14.695 12.874 2.346 0.316 70.454 1.205 91.309 1.192l4.785-0.003v-4.688h-48.16c-42.266 0-48.445-0.074-50.488-0.606-4.318-1.125-8.381-4.037-10.831-7.765-1.468-2.235-1.543-2.293-1.31-1.004" display="block" fill="#d6d6d6"/>
        <path opacity="0.148" d="m223.44 25.781c0 0.634-0.261 0.782-1.379 0.782h-1.378l0.109 50.488 0.108 50.488 1.066 3.125c2.697 7.909 9.036 13.598 16.987 15.242 2.836 0.587 49.838 1.333 85.17 1.352l13.379 0.008v-2.251l-23.34-0.255c-55.388-0.606-73.753-0.943-75.477-1.386-7.124-1.829-12.782-7.518-14.664-14.742-1.05-4.031-0.858-102.07 0.2-102.07 0.521 0 0.781-0.261 0.781-0.782 0-0.52-0.26-0.78-0.78-0.78-0.521 0-0.781 0.26-0.781 0.781m3.499 1.27c1.619 1.724 1.969 2.035 1.969 1.741 0-0.062-0.835-0.897-1.855-1.855l-1.856-1.742 1.742 1.856" display="block" fill="#e7e7e7"/>
        <path d="m223.44 25.781c0 0.634-0.261 0.782-1.379 0.782h-1.378l0.109 50.488 0.108 50.488 1.066 3.125c2.697 7.909 9.036 13.598 16.987 15.242 2.836 0.587 49.838 1.333 85.17 1.352l13.379 0.008v-2.251l-23.34-0.255c-55.388-0.606-73.753-0.943-75.477-1.386-7.124-1.829-12.782-7.518-14.664-14.742-1.05-4.031-0.858-102.07 0.2-102.07 0.521 0 0.781-0.261 0.781-0.782 0-0.52-0.26-0.78-0.78-0.78-0.521 0-0.781 0.26-0.781 0.781m3.499 1.27c1.619 1.724 1.969 2.035 1.969 1.741 0-0.062-0.835-0.897-1.855-1.855l-1.856-1.742 1.742 1.856" display="block" fill="#e7e7e7"/>
    </g>
    <g display="inline">
        <path d="m225 71.29c0.002 26.791 0.159 47.454 0.377 49.343 0.845 7.356 5.411 13.014 12.737 15.785l2.313 0.874 43.164 0.118c23.74 0.065 45.494 0.068 48.341 0.006l5.177-0.111-56.05-56.059-56.06-56.055v46.094" fill-rule="evenodd" display="block" fill="#f2f2f2"/>
    </g>
</svg>
