<?xml version="1.0" encoding="UTF-8" standalone="no"?>
<svg
   xmlns:dc="http://purl.org/dc/elements/1.1/"
   xmlns:cc="http://creativecommons.org/ns#"
   xmlns:rdf="http://www.w3.org/1999/02/22-rdf-syntax-ns#"
   xmlns:svg="http://www.w3.org/2000/svg"
   xmlns="http://www.w3.org/2000/svg"
   xmlns:sodipodi="http://sodipodi.sourceforge.net/DTD/sodipodi-0.dtd"
   xmlns:inkscape="http://www.inkscape.org/namespaces/inkscape"
   id="svg"
   version="1.1"
   width="400"
   height="400"
   style="display: block;"
   sodipodi:docname="excel.svg"
   inkscape:version="0.92.2 (30a58d1, 2017-08-07)"
   enable-background="new">
  <metadata
     id="metadata3815">
    <rdf:RDF>
      <cc:Work
         rdf:about="">
        <dc:format>image/svg+xml</dc:format>
        <dc:type
           rdf:resource="http://purl.org/dc/dcmitype/StillImage" />
        <dc:title />
      </cc:Work>
    </rdf:RDF>
  </metadata>
  <defs
     id="defs3813">
    <filter
       inkscape:collect="always"
       style="color-interpolation-filters:sRGB"
       id="filter734">
      <feBlend
         inkscape:collect="always"
         mode="color-burn"
         in2="BackgroundImage"
         id="feBlend736" />
    </filter>
  </defs>
  <sodipodi:namedview
     pagecolor="#ffffff"
     bordercolor="#666666"
     borderopacity="1"
     objecttolerance="10"
     gridtolerance="10"
     guidetolerance="10"
     inkscape:pageopacity="0"
     inkscape:pageshadow="2"
     inkscape:window-width="1280"
     inkscape:window-height="944"
     id="namedview3811"
     showgrid="false"
     inkscape:zoom="0.64435105"
     inkscape:cx="246.76761"
     inkscape:cy="92.519652"
     inkscape:window-x="0"
     inkscape:window-y="0"
     inkscape:window-maximized="1"
     inkscape:current-layer="layer5" />
  <g
     id="svgg">
    <path
       id="path1"
       d=""
       stroke="none"
       fill="#101010"
       fill-rule="evenodd" />
    <path
       id="path2"
       d=""
       stroke="none"
       fill="#181818"
       fill-rule="evenodd" />
    <path
       id="path3"
       d=""
       stroke="none"
       fill="#202020"
       fill-rule="evenodd" />
    <path
       id="path4"
       d=""
       stroke="none"
       fill="#262626"
       fill-rule="evenodd" />
    <path
       id="path5"
       d=""
       stroke="none"
       fill="#2f2f2f"
       fill-rule="evenodd" />
    <path
       id="path6"
       d=""
       stroke="none"
       fill="#3c3c3c"
       fill-rule="evenodd" />
    <path
       id="path7"
       d=""
       stroke="none"
       fill="#454545"
       fill-rule="evenodd" />
    <path
       id="path8"
       d=""
       stroke="none"
       fill="#4d4d4d"
       fill-rule="evenodd" />
    <path
       id="path9"
       d=""
       stroke="none"
       fill="#585858"
       fill-rule="evenodd" />
    <path
       id="path10"
       d=""
       stroke="none"
       fill="#676767"
       fill-rule="evenodd" />
    <path
       id="path11"
       d=""
       stroke="none"
       fill="#6d6d6d"
       fill-rule="evenodd" />
    <path
       id="path12"
       d=""
       stroke="none"
       fill="#737373"
       fill-rule="evenodd" />
    <path
       id="path13"
       d=""
       stroke="none"
       fill="#7b7b7b"
       fill-rule="evenodd" />
    <path
       id="path14"
       d=""
       stroke="none"
       fill="#818181"
       fill-rule="evenodd" />
    <path
       id="path15"
       d=""
       stroke="none"
       fill="#8b8b8b"
       fill-rule="evenodd" />
    <path
       id="path16"
       d=""
       stroke="none"
       fill="#939393"
       fill-rule="evenodd" />
    <path
       id="path17"
       d=""
       stroke="none"
       fill="#9a9a9a"
       fill-rule="evenodd" />
    <path
       id="path18"
       d=""
       stroke="none"
       fill="#a1a1a1"
       fill-rule="evenodd" />
    <path
       id="path19"
       d=""
       stroke="none"
       fill="#a7a7a7"
       fill-rule="evenodd" />
    <path
       id="path20"
       d=""
       stroke="none"
       fill="#b2b2b2"
       fill-rule="evenodd" />
    <path
       id="path21"
       d=""
       stroke="none"
       fill="#bababa"
       fill-rule="evenodd" />
    <path
       id="path22"
       d=""
       stroke="none"
       fill="#c1c1c1"
       fill-rule="evenodd" />
    <path
       id="path23"
       d=""
       stroke="none"
       fill="#cacaca"
       fill-rule="evenodd" />
    <path
       id="path24"
       d=""
       stroke="none"
       fill="#d0d0d0"
       fill-rule="evenodd" />
    <path
       id="path29"
       d="m 219.922,25.781 c 0,0.779 -0.262,0.782 -70.606,0.786 -76.809,0.005 -72.343,-0.121 -76.893,2.181 -2.249,1.137 -6.113,4.706 -7.043,6.505 -0.313,0.605 -0.718,1.009 -0.899,0.897 -0.182,-0.112 -0.322,0.014 -0.313,0.28 0.048,1.336 -0.138,1.877 -0.556,1.619 -0.28,-0.173 -0.345,-0.108 -0.173,0.172 0.154,0.248 0.146,0.667 -0.017,0.93 -0.665951,1.077788 -0.724284,10.024261 -0.726899,149.60071 -7.1e-5,3.78299 -16.461006,6.56454 -16.461006,10.5419 0,29.15153 0.616103,57.309 0.622362,76.70085 0.0038,11.78276 15.855249,18.65772 15.864084,27.43528 0.0528,52.45494 0.213803,55.28386 0.702459,56.72626 2.004,5.919 5.916,9.963 11.804,12.206 l 2.312,0.88 h 122.266 c 118.233,0 122.336,-0.024 124.414,-0.727 5.918,-2.005 9.963,-5.916 12.205,-11.804 l 0.881,-2.313 0.102,-105.566 0.101,-105.566 -0.008,-9.766 c -27.51607,-18.126 -39.05905,-25.98642 -41.89605,-26.57342 -7.951,-1.644 -8.94021,-0.74864 -11.63721,-8.65764 l -5.3184,-5.456963 -7.5154,-8.78704 L 225.195,25.195 l -3.136,1.368 c -1.02474,0.447018 1.379,-0.148 1.379,-0.782 0,-0.665 -0.261,-0.781 -1.758,-0.781 -1.498,0 -1.758,0.116 -1.758,0.781"
       inkscape:connector-curvature="0"
       style="fill:#ececec;fill-rule:evenodd;stroke:none"
       sodipodi:nodetypes="cccccccccsssscccscccccccccccsssc" />
    <path
       id="path31"
       d="M78.573 25.402 C 71.608 26.415,65.278 31.825,63.506 38.281 C 63.358 38.818,63.797 38.165,64.482 36.829 C 66.017 33.830,69.612 30.170,72.412 28.753 C 76.974 26.445,72.488 26.572,149.316 26.567 C 219.660 26.563,219.922 26.560,219.922 25.781 C 219.922 24.960,84.118 24.595,78.573 25.402 "
       stroke="none"
       fill="#f1f1f1"
       fill-rule="evenodd" />
  </g>
  <g
     inkscape:groupmode="layer"
     id="layer5"
     inkscape:label="Data">
    <rect
       style="fill:#989898;fill-opacity:1"
       id="rect560"
       width="91.083672"
       height="45.541836"
       x="102.60632"
       y="79.012344" />
    <rect
       style="display:block;fill:#989898;fill-opacity:1;stroke-width:0.56032342"
       id="rect560-7"
       width="28.59684"
       height="45.541836"
       x="206.31001"
       y="79.01265" />
    <rect
       style="display:block;fill:#989898;fill-opacity:1;stroke-width:0.78753388"
       id="rect560-5"
       width="56.490967"
       height="45.541836"
       x="137.19858"
       y="149.01265" />
    <rect
       style="display:block;fill:#85be9f;fill-opacity:1"
       id="rect560-7-3"
       width="91.083672"
       height="45.541836"
       x="206.31001"
       y="149.01265" />
    <rect
       style="display:block;fill:#85be9f;fill-opacity:1;stroke-width:0.75844771"
       id="rect560-5-5"
       width="52.395241"
       height="45.541836"
       x="141.29431"
       y="219.01265" />
    <rect
       style="display:block;fill:#85be9f;fill-opacity:1"
       id="rect560-7-3-6"
       width="91.083672"
       height="45.541836"
       x="206.31001"
       y="219.01265" />
    <rect
       style="display:block;fill:#85be9f;fill-opacity:1;stroke-width:0.83953512"
       id="rect560-5-5-2"
       width="64.197525"
       height="45.541836"
       x="129.49202"
       y="289.01263" />
    <rect
       style="display:block;fill:#85be9f;fill-opacity:1"
       id="rect560-7-3-6-9"
       width="91.083672"
       height="45.541836"
       x="206.31001"
       y="289.01263" />
  </g>
  <g
     inkscape:groupmode="layer"
     id="layer1"
     inkscape:label="App icon">
    <g
       transform="matrix(0.57130163,0,0,0.57251097,15.769291,124.27587)"
       style="display:block"
       id="svgg-3">
      <path
         id="path1-6"
         d="m 221.5,24.326 c -0.33,0.05 -1.995,0.354 -3.7,0.675 C 69.398,52.965 22.238,61.864 21.111,62.114 c -3.186,0.707 -4.415,1.743 -4.805,4.049 -0.077,0.459 -0.223,0.886 -0.323,0.948 -0.246,0.151 -0.246,265.627 0,265.778 0.1,0.062 0.246,0.489 0.323,0.948 0.131,0.777 0.646,1.906 1.153,2.529 0.959,1.178 -3.607,0.24 54.141,11.122 27.115,5.109 71.8,13.536 99.3,18.726 53.75,10.145 52.933,10.008 55.415,9.294 1.76,-0.507 2.685,-1.53 2.984,-3.301 0.31403,-169.88337 0.31028,-169.87349 0.313,-343.5 -0.104,-0.064 -0.246,-0.497 -0.316,-0.962 -0.402,-2.668 -3.565,-4.056 -7.796,-3.419 m -63.409,113.357 c 1.62,0.677 1.67,2.007 0.187,4.962 -0.828,1.648 -7.745,14.849 -22.141,42.255 -5.386,10.254 -5.526,10.564 -5.532,12.246 -0.007,1.862 -1.528,-1.117 22.893,44.854 7.194,13.542 7.024,13.17 6.658,14.564 -0.422,1.607 -0.878,1.637 -12.645,0.838 -12.118,-0.823 -12.465,-0.885 -13.881,-2.499 -0.895,-1.019 -1.004,-1.25 -9.023,-19.212 -8.32,-18.637 -8.689,-19.436 -9.256,-20.041 -0.531,-0.568 -1.418,-0.583 -1.969,-0.032 -0.506,0.506 -0.423,0.33 -8.281,17.482 -9.394,20.501 -8.969,19.755 -11.547,20.288 -1.19,0.245 -17.172,-0.785 -18.638,-1.203 -1.675,-0.476 -2.297,-1.808 -1.684,-3.605 0.128,-0.374 5.181,-9.95 11.229,-21.28 6.048,-11.33 11.752,-22.015 12.674,-23.744 2.424,-4.54 2.73,-5.78 1.975,-7.999 -0.177,-0.519 -5.459,-11.454 -11.738,-24.3 -13.026,-26.648 -12.558,-25.592 -11.938,-26.953 0.614,-1.347 1.563,-1.527 11.599,-2.207 11.079,-0.751 11.241,-0.721 12.796,2.361 0.58,1.149 10.68,25.636 12.515,30.342 2.538,6.509 3.651,6.641 5.9,0.7 0.825,-2.178 13.372,-30.148 14.804,-33 1.85,-3.684 1.879,-3.694 13.002,-4.49 9.292,-0.665 11.113,-0.714 12.041,-0.327"
         inkscape:connector-curvature="0"
         style="fill:#1f7244;fill-rule:evenodd;stroke:none"
         sodipodi:nodetypes="cccccccccccccccccccccccccsccccsccccccccccc" />
    </g>
  </g>
  <g
     inkscape:groupmode="layer"
     id="layer3"
     inkscape:label="Shadows"
     style="display:inline;opacity:1;filter:url(#filter734)">
    <path
       style="display:block;fill:#e1e1e1;fill-rule:evenodd;stroke:none"
       id="path26"
       d="m 223.438,76.48 c 0,42.949 0.081,50.23 0.581,52.152 1.882,7.225 7.544,12.916 14.664,14.742 1.84,0.471 22.253,0.853 71.766,1.342 l 27.051,0.267 v -1.398 -1.397 l -4.785,0.003 c -20.855,0.013 -88.963,-0.876 -91.309,-1.192 -7.24,-0.977 -14.503,-7.484 -14.62,-13.101 -0.016,-0.733 -0.131,-1.334 -0.256,-1.334 -0.125,-10e-4 -0.244,-0.221 -0.264,-0.49 -0.02,-0.268 -0.311,-1.455 -0.646,-2.636 -0.538,-1.895 -0.611,-7.757 -0.615,-49.512 -0.005,-47.102 -0.009,-47.363 -0.786,-47.363 -0.777,0 -0.781,0.26 -0.781,49.917 m 59.179,6.333 c 29.648,29.648 53.993,53.906 54.101,53.906 0.107,0 -24.062,-24.258 -53.71,-53.907 -29.648,-29.648 -53.993,-53.906 -54.101,-53.906 -0.107,0 24.062,24.258 53.71,53.907 m -52.539,49.023 c 0.729,0.752 1.413,1.367 1.521,1.367 0.107,0 -0.401,-0.615 -1.13,-1.367 -0.729,-0.752 -1.413,-1.367 -1.521,-1.367 -0.107,0 0.401,0.615 1.13,1.367 M 63.68,362.218 c -0.123,4.35 8.488,11.44 15.031,12.376 3.762,0.537 238.816,0.537 242.578,0 6.54,-0.935 13.338,-6.305 14.816,-11.703 0.147,-0.537 -0.293,-0.04 -0.977,1.106 -2.566,4.293 -6.935,7.65 -11.501,8.84 -3.513,0.915 -243.741,0.915 -247.254,0 -4.585,-1.195 -8.994,-4.593 -11.47,-8.84 -0.668,-1.146 -1.218,-1.946 -1.223,-1.779"
       inkscape:connector-curvature="0" />
    <path
       style="display:block;fill:#d6d6d6;fill-rule:evenodd;stroke:none"
       id="path25"
       d="m 226.711,128.125 c 1.143,6.31 7.534,11.908 14.695,12.874 2.346,0.316 70.454,1.205 91.309,1.192 l 4.785,-0.003 v -2.344 -2.344 h -48.16 c -42.266,0 -48.445,-0.074 -50.488,-0.606 -4.318,-1.125 -8.381,-4.037 -10.831,-7.765 -1.468,-2.235 -1.543,-2.293 -1.31,-1.004"
       inkscape:connector-curvature="0" />
    <path
       style="display:block;opacity:0.14800002;fill:#e7e7e7;fill-rule:evenodd;stroke:none"
       id="path28"
       d="m 223.438,25.781 c 0,0.634 -0.261,0.782 -1.379,0.782 h -1.378 l 0.109,50.488 0.108,50.488 1.066,3.125 c 2.697,7.909 9.036,13.598 16.987,15.242 2.836,0.587 49.838,1.333 85.17,1.352 l 13.379,0.008 v -1.125 -1.126 l -23.34,-0.255 c -55.388,-0.606 -73.753,-0.943 -75.477,-1.386 -7.124,-1.829 -12.782,-7.518 -14.664,-14.742 -1.05,-4.031 -0.858,-102.069 0.2,-102.069 0.521,0 0.781,-0.261 0.781,-0.782 C 225,25.26 224.74,25 224.219,25 c -0.521,0 -0.781,0.26 -0.781,0.781 m 3.499,1.27 c 1.619,1.724 1.969,2.035 1.969,1.741 0,-0.062 -0.835,-0.897 -1.855,-1.855 l -1.856,-1.742 1.742,1.856"
       inkscape:connector-curvature="0" />
    <path
       style="display:block;fill:#e7e7e7;fill-rule:evenodd;stroke:none"
       id="path27"
       d="m 223.438,25.781 c 0,0.634 -0.261,0.782 -1.379,0.782 h -1.378 l 0.109,50.488 0.108,50.488 1.066,3.125 c 2.697,7.909 9.036,13.598 16.987,15.242 2.836,0.587 49.838,1.333 85.17,1.352 l 13.379,0.008 v -1.125 -1.126 l -23.34,-0.255 c -55.388,-0.606 -73.753,-0.943 -75.477,-1.386 -7.124,-1.829 -12.782,-7.518 -14.664,-14.742 -1.05,-4.031 -0.858,-102.069 0.2,-102.069 0.521,0 0.781,-0.261 0.781,-0.782 C 225,25.26 224.74,25 224.219,25 c -0.521,0 -0.781,0.26 -0.781,0.781 m 3.499,1.27 c 1.619,1.724 1.969,2.035 1.969,1.741 0,-0.062 -0.835,-0.897 -1.855,-1.855 l -1.856,-1.742 1.742,1.856"
       inkscape:connector-curvature="0" />
  </g>
  <g
     inkscape:groupmode="layer"
     id="layer2"
     inkscape:label="Last"
     style="display:inline;opacity:1">
    <path
       style="display:block;fill:#f2f2f2;fill-rule:evenodd;stroke:none"
       id="path30"
       d="m 225.003,71.29 c 0.002,26.791 0.159,47.454 0.377,49.343 0.845,7.356 5.411,13.014 12.737,15.785 l 2.313,0.874 43.164,0.118 c 23.74,0.065 45.494,0.068 48.341,0.006 l 5.177,-0.111 L 281.056,81.251 225,25.196 225.003,71.29"
       inkscape:connector-curvature="0" />
  </g>
</svg>
