<?xml version="1.0" encoding="UTF-8" standalone="no"?>
<svg
   xmlns:dc="http://purl.org/dc/elements/1.1/"
   xmlns:cc="http://creativecommons.org/ns#"
   xmlns:rdf="http://www.w3.org/1999/02/22-rdf-syntax-ns#"
   xmlns:svg="http://www.w3.org/2000/svg"
   xmlns="http://www.w3.org/2000/svg"
   xmlns:sodipodi="http://sodipodi.sourceforge.net/DTD/sodipodi-0.dtd"
   xmlns:inkscape="http://www.inkscape.org/namespaces/inkscape"
   id="svg"
   version="1.1"
   width="400"
   height="400"
   style="display: block;"
   sodipodi:docname="excel-prefix.svg"
   inkscape:version="0.92.2 (30a58d1, 2017-08-07)">
  <metadata
     id="metadata4049">
    <rdf:RDF>
      <cc:Work
         rdf:about="">
        <dc:format>image/svg+xml</dc:format>
        <dc:type
           rdf:resource="http://purl.org/dc/dcmitype/StillImage" />
        <dc:title />
      </cc:Work>
    </rdf:RDF>
  </metadata>
  <defs
     id="defs4047" />
  <sodipodi:namedview
     pagecolor="#ffffff"
     bordercolor="#666666"
     borderopacity="1"
     objecttolerance="10"
     gridtolerance="10"
     guidetolerance="10"
     inkscape:pageopacity="0"
     inkscape:pageshadow="2"
     inkscape:window-width="1280"
     inkscape:window-height="944"
     id="namedview4045"
     showgrid="false"
     inkscape:zoom="0.834386"
     inkscape:cx="358.7531"
     inkscape:cy="44.234357"
     inkscape:window-x="0"
     inkscape:window-y="0"
     inkscape:window-maximized="1"
     inkscape:current-layer="svg" />
  <g
     id="svgg">
    <path
       id="path0"
       d="m 146.05,138.01 c -11.123,0.796 -11.152,0.806 -13.002,4.49 -1.432,2.852 -13.979,30.822 -14.804,33 -2.249,5.941 -3.362,5.809 -5.9,-0.7 -1.835,-4.706 -11.935,-29.193 -12.515,-30.342 -1.555,-3.082 -1.717,-3.112 -12.796,-2.361 -10.036,0.68 -10.985,0.86 -11.599,2.207 -0.62,1.361 -1.088,0.305 11.938,26.953 6.279,12.846 11.561,23.781 11.738,24.3 0.755,2.219 0.449,3.459 -1.975,7.999 -0.922,1.729 -6.626,12.414 -12.674,23.744 -6.048,11.33 -11.101,20.906 -11.229,21.28 -0.613,1.797 0.009,3.129 1.684,3.605 1.466,0.418 17.448,1.448 18.638,1.203 2.578,-0.533 2.153,0.213 11.547,-20.288 7.858,-17.152 7.775,-16.976 8.281,-17.482 0.551,-0.551 1.438,-0.536 1.969,0.032 0.567,0.605 0.936,1.404 9.256,20.041 8.019,17.962 8.128,18.193 9.023,19.212 1.416,1.614 1.763,1.676 13.881,2.499 11.767,0.799 12.223,0.769 12.645,-0.838 0.366,-1.394 0.536,-1.022 -6.658,-14.564 -24.421,-45.971 -22.9,-42.992 -22.893,-44.854 0.006,-1.682 0.146,-1.992 5.532,-12.246 26.268,-50.007 23.837,-45.095 22.974,-46.411 -0.834,-1.273 -1.586,-1.3 -13.061,-0.479"
       inkscape:connector-curvature="0"
       style="fill:#ffffff;fill-rule:evenodd;stroke:none"
       sodipodi:nodetypes="ccccccccccsccccscccccccccc" />
    <path
       id="path1"
       d="m 221.5,24.326 c -0.33,0.05 -1.995,0.354 -3.7,0.675 C 69.398,52.965 22.238,61.864 21.111,62.114 c -3.186,0.707 -4.415,1.743 -4.805,4.049 -0.077,0.459 -0.223,0.886 -0.323,0.948 -0.246,0.151 -0.246,265.627 0,265.778 0.1,0.062 0.246,0.489 0.323,0.948 0.131,0.777 0.646,1.906 1.153,2.529 0.959,1.178 -3.607,0.24 54.141,11.122 27.115,5.109 71.8,13.536 99.3,18.726 53.75,10.145 52.933,10.008 55.415,9.294 1.76,-0.507 2.685,-1.53 2.984,-3.301 0.31403,-169.88337 0.31028,-169.87349 0.313,-343.5 -0.104,-0.064 -0.246,-0.497 -0.316,-0.962 -0.402,-2.668 -3.565,-4.056 -7.796,-3.419 m -63.409,113.357 c 1.62,0.677 1.67,2.007 0.187,4.962 -0.828,1.648 -7.745,14.849 -22.141,42.255 -5.386,10.254 -5.526,10.564 -5.532,12.246 -0.007,1.862 -1.528,-1.117 22.893,44.854 7.194,13.542 7.024,13.17 6.658,14.564 -0.422,1.607 -0.878,1.637 -12.645,0.838 -12.118,-0.823 -12.465,-0.885 -13.881,-2.499 -0.895,-1.019 -1.004,-1.25 -9.023,-19.212 -8.32,-18.637 -8.689,-19.436 -9.256,-20.041 -0.531,-0.568 -1.418,-0.583 -1.969,-0.032 -0.506,0.506 -0.423,0.33 -8.281,17.482 -9.394,20.501 -8.969,19.755 -11.547,20.288 -1.19,0.245 -17.172,-0.785 -18.638,-1.203 -1.675,-0.476 -2.297,-1.808 -1.684,-3.605 0.128,-0.374 5.181,-9.95 11.229,-21.28 6.048,-11.33 11.752,-22.015 12.674,-23.744 2.424,-4.54 2.73,-5.78 1.975,-7.999 -0.177,-0.519 -5.459,-11.454 -11.738,-24.3 -13.026,-26.648 -12.558,-25.592 -11.938,-26.953 0.614,-1.347 1.563,-1.527 11.599,-2.207 11.079,-0.751 11.241,-0.721 12.796,2.361 0.58,1.149 10.68,25.636 12.515,30.342 2.538,6.509 3.651,6.641 5.9,0.7 0.825,-2.178 13.372,-30.148 14.804,-33 1.85,-3.684 1.879,-3.694 13.002,-4.49 9.292,-0.665 11.113,-0.714 12.041,-0.327"
       inkscape:connector-curvature="0"
       style="fill:#1f7244;fill-rule:evenodd;stroke:none"
       sodipodi:nodetypes="cccccccccccccccccccccccccsccccsccccccccccc" />
  </g>
</svg>
