<?xml version="1.0" encoding="UTF-8" standalone="no"?>
<svg
   xmlns:dc="http://purl.org/dc/elements/1.1/"
   xmlns:cc="http://creativecommons.org/ns#"
   xmlns:rdf="http://www.w3.org/1999/02/22-rdf-syntax-ns#"
   xmlns:svg="http://www.w3.org/2000/svg"
   xmlns="http://www.w3.org/2000/svg"
   xmlns:sodipodi="http://sodipodi.sourceforge.net/DTD/sodipodi-0.dtd"
   xmlns:inkscape="http://www.inkscape.org/namespaces/inkscape"
   id="svg"
   version="1.1"
   width="400"
   height="400"
   style="display: block;"
   sodipodi:docname="powerpoint.svg"
   inkscape:version="0.92.2 (30a58d1, 2017-08-07)">
  <metadata
     id="metadata3815">
    <rdf:RDF>
      <cc:Work
         rdf:about="">
        <dc:format>image/svg+xml</dc:format>
        <dc:type
           rdf:resource="http://purl.org/dc/dcmitype/StillImage" />
        <dc:title></dc:title>
      </cc:Work>
    </rdf:RDF>
  </metadata>
  <defs
     id="defs3813" />
  <sodipodi:namedview
     pagecolor="#ffffff"
     bordercolor="#666666"
     borderopacity="1"
     objecttolerance="10"
     gridtolerance="10"
     guidetolerance="10"
     inkscape:pageopacity="0"
     inkscape:pageshadow="2"
     inkscape:window-width="1280"
     inkscape:window-height="944"
     id="namedview3811"
     showgrid="false"
     inkscape:zoom="0.64435105"
     inkscape:cx="-116.32593"
     inkscape:cy="307.51036"
     inkscape:window-x="0"
     inkscape:window-y="0"
     inkscape:window-maximized="1"
     inkscape:current-layer="layer2" />
  <g
     id="svgg">
    <path
       id="path1"
       d=""
       stroke="none"
       fill-rule="evenodd"
       fill="#101010" />
    <path
       id="path2"
       d=""
       stroke="none"
       fill-rule="evenodd"
       fill="#181818" />
    <path
       id="path3"
       d=""
       stroke="none"
       fill-rule="evenodd"
       fill="#202020" />
    <path
       id="path4"
       d=""
       stroke="none"
       fill-rule="evenodd"
       fill="#262626" />
    <path
       id="path5"
       d=""
       stroke="none"
       fill-rule="evenodd"
       fill="#2f2f2f" />
    <path
       id="path6"
       d=""
       stroke="none"
       fill-rule="evenodd"
       fill="#3c3c3c" />
    <path
       id="path7"
       d=""
       stroke="none"
       fill-rule="evenodd"
       fill="#454545" />
    <path
       id="path8"
       d=""
       stroke="none"
       fill-rule="evenodd"
       fill="#4d4d4d" />
    <path
       id="path9"
       d=""
       stroke="none"
       fill-rule="evenodd"
       fill="#585858" />
    <path
       id="path10"
       d=""
       stroke="none"
       fill-rule="evenodd"
       fill="#676767" />
    <path
       id="path11"
       d=""
       stroke="none"
       fill-rule="evenodd"
       fill="#6d6d6d" />
    <path
       id="path12"
       d=""
       stroke="none"
       fill-rule="evenodd"
       fill="#737373" />
    <path
       id="path13"
       d=""
       stroke="none"
       fill-rule="evenodd"
       fill="#7b7b7b" />
    <path
       id="path14"
       d=""
       stroke="none"
       fill-rule="evenodd"
       fill="#818181" />
    <path
       id="path15"
       d=""
       stroke="none"
       fill-rule="evenodd"
       fill="#8b8b8b" />
    <path
       id="path16"
       d=""
       stroke="none"
       fill-rule="evenodd"
       fill="#939393" />
    <path
       id="path17"
       d=""
       stroke="none"
       fill-rule="evenodd"
       fill="#9a9a9a" />
    <path
       id="path18"
       d=""
       stroke="none"
       fill-rule="evenodd"
       fill="#a1a1a1" />
    <path
       id="path19"
       d=""
       stroke="none"
       fill-rule="evenodd"
       fill="#a7a7a7" />
    <path
       id="path20"
       d=""
       stroke="none"
       fill-rule="evenodd"
       fill="#b2b2b2" />
    <path
       id="path21"
       d=""
       stroke="none"
       fill-rule="evenodd"
       fill="#bababa" />
    <path
       id="path22"
       d=""
       stroke="none"
       fill-rule="evenodd"
       fill="#c1c1c1" />
    <path
       id="path23"
       d=""
       stroke="none"
       fill-rule="evenodd"
       fill="#cacaca" />
    <path
       id="path24"
       d=""
       stroke="none"
       fill-rule="evenodd"
       fill="#d0d0d0" />
    <path
       id="path25"
       d="M226.711 128.125 C 227.854 134.435,234.245 140.033,241.406 140.999 C 243.752 141.315,311.860 142.204,332.715 142.191 L 337.500 142.188 337.500 139.844 L 337.500 137.500 289.340 137.500 C 247.074 137.500,240.895 137.426,238.852 136.894 C 234.534 135.769,230.471 132.857,228.021 129.129 C 226.553 126.894,226.478 126.836,226.711 128.125 "
       stroke="none"
       fill-rule="evenodd"
       fill="#d6d6d6" />
    <path
       id="path26"
       d="M223.438 76.480 C 223.438 119.429,223.519 126.710,224.019 128.632 C 225.901 135.857,231.563 141.548,238.683 143.374 C 240.523 143.845,260.936 144.227,310.449 144.716 L 337.500 144.983 337.500 143.585 L 337.500 142.188 332.715 142.191 C 311.860 142.204,243.752 141.315,241.406 140.999 C 234.166 140.022,226.903 133.515,226.786 127.898 C 226.770 127.165,226.655 126.564,226.530 126.564 C 226.405 126.563,226.286 126.343,226.266 126.074 C 226.246 125.806,225.955 124.619,225.620 123.438 C 225.082 121.543,225.009 115.681,225.005 73.926 C 225.000 26.824,224.996 26.563,224.219 26.563 C 223.442 26.563,223.438 26.823,223.438 76.480 M282.617 82.813 C 312.265 112.461,336.610 136.719,336.718 136.719 C 336.825 136.719,312.656 112.461,283.008 82.812 C 253.360 53.164,229.015 28.906,228.907 28.906 C 228.800 28.906,252.969 53.164,282.617 82.813 M230.078 131.836 C 230.807 132.588,231.491 133.203,231.599 133.203 C 231.706 133.203,231.198 132.588,230.469 131.836 C 229.740 131.084,229.056 130.469,228.948 130.469 C 228.841 130.469,229.349 131.084,230.078 131.836 M63.680 362.218 C 63.557 366.568,72.168 373.658,78.711 374.594 C 82.473 375.131,317.527 375.131,321.289 374.594 C 327.829 373.659,334.627 368.289,336.105 362.891 C 336.252 362.354,335.812 362.851,335.128 363.997 C 332.562 368.290,328.193 371.647,323.627 372.837 C 320.114 373.752,79.886 373.752,76.373 372.837 C 71.788 371.642,67.379 368.244,64.903 363.997 C 64.235 362.851,63.685 362.051,63.680 362.218 "
       stroke="none"
       fill-rule="evenodd"
       fill="#e1e1e1" />
    <path
       id="path27"
       d="M223.438 25.781 C 223.438 26.415,223.177 26.563,222.059 26.563 L 220.681 26.563 220.790 77.051 L 220.898 127.539 221.964 130.664 C 224.661 138.573,231.000 144.262,238.951 145.906 C 241.787 146.493,288.789 147.239,324.121 147.258 L 337.500 147.266 337.500 146.141 L 337.500 145.015 314.160 144.760 C 258.772 144.154,240.407 143.817,238.683 143.374 C 231.559 141.545,225.901 135.856,224.019 128.632 C 222.969 124.601,223.161 26.563,224.219 26.563 C 224.740 26.563,225.000 26.302,225.000 25.781 C 225.000 25.260,224.740 25.000,224.219 25.000 C 223.698 25.000,223.438 25.260,223.438 25.781 M226.937 27.051 C 228.556 28.775,228.906 29.086,228.906 28.792 C 228.906 28.730,228.071 27.895,227.051 26.937 L 225.195 25.195 226.937 27.051 "
       stroke="none"
       fill-rule="evenodd"
       fill="#e7e7e7" />
    <path
       id="path28"
       d="M223.438 25.781 C 223.438 26.415,223.177 26.563,222.059 26.563 L 220.681 26.563 220.790 77.051 L 220.898 127.539 221.964 130.664 C 224.661 138.573,231.000 144.262,238.951 145.906 C 241.787 146.493,288.789 147.239,324.121 147.258 L 337.500 147.266 337.500 146.141 L 337.500 145.015 314.160 144.760 C 258.772 144.154,240.407 143.817,238.683 143.374 C 231.559 141.545,225.901 135.856,224.019 128.632 C 222.969 124.601,223.161 26.563,224.219 26.563 C 224.740 26.563,225.000 26.302,225.000 25.781 C 225.000 25.260,224.740 25.000,224.219 25.000 C 223.698 25.000,223.438 25.260,223.438 25.781 M226.937 27.051 C 228.556 28.775,228.906 29.086,228.906 28.792 C 228.906 28.730,228.071 27.895,227.051 26.937 L 225.195 25.195 226.937 27.051 "
       stroke="none"
       fill-rule="evenodd"
       fill="#e7e7e7" />
    <path
       id="path29"
       d="M219.922 25.781 C 219.922 26.560,219.660 26.563,149.316 26.567 C 72.507 26.572,76.973 26.446,72.423 28.748 C 70.174 29.885,66.310 33.454,65.380 35.253 C 65.067 35.858,64.662 36.262,64.481 36.150 C 64.299 36.038,64.159 36.164,64.168 36.430 C 64.216 37.766,64.030 38.307,63.612 38.049 C 63.332 37.876,63.267 37.941,63.439 38.221 C 63.593 38.469,63.585 38.888,63.422 39.151 C 62.738 40.258,62.695 49.666,62.695 200.391 C 62.695 353.108,62.718 358.075,63.423 360.156 C 65.427 366.075,69.339 370.119,75.227 372.362 L 77.539 373.242 199.805 373.242 C 318.038 373.242,322.141 373.218,324.219 372.515 C 330.137 370.510,334.182 366.599,336.424 360.711 L 337.305 358.398 337.407 252.832 L 337.508 147.266 324.125 147.258 C 288.790 147.239,241.788 146.493,238.951 145.906 C 231.000 144.262,224.661 138.573,221.964 130.664 L 220.898 127.539 220.790 77.051 L 220.681 26.563 222.059 26.563 C 223.177 26.563,223.438 26.415,223.438 25.781 C 223.438 25.116,223.177 25.000,221.680 25.000 C 220.182 25.000,219.922 25.116,219.922 25.781 "
       stroke="none"
       fill-rule="evenodd"
       fill="#ececec" />
    <path
       id="path31"
       d="M78.573 25.402 C 71.608 26.415,65.278 31.825,63.506 38.281 C 63.358 38.818,63.797 38.165,64.482 36.829 C 66.017 33.830,69.612 30.170,72.412 28.753 C 76.974 26.445,72.488 26.572,149.316 26.567 C 219.660 26.563,219.922 26.560,219.922 25.781 C 219.922 24.960,84.118 24.595,78.573 25.402 "
       stroke="none"
       fill-rule="evenodd"
       fill="#f1f1f1" />
  </g>
  <g
     transform="matrix(1.3310987,0,0,1.3310987,-159.16101,-56.630621)"
     id="svgg-7"
     style="display:block;fill:#ff8a65;fill-opacity:1">
    <path
       inkscape:connector-curvature="0"
       id="path0"
       d=""
       style="fill:#ff8a65;fill-opacity:1;fill-rule:evenodd;stroke:none" />
    <path
       id="path4-5"
       d="m 269.095,109.091 c -0.429,0.197 -1.104,0.782 -1.5,1.301 l -0.72,0.944 v 22.059 22.059 l 0.773,0.96 c 1.47,1.828 -0.176,1.711 23.977,1.711 24.276,0 22.617,0.118 23.974,-1.708 0.779,-1.049 0.702,-5.061 -0.169,-8.792 -4.528,-19.391 -19.009,-33.752 -38.453,-38.137 -3.073,-0.692 -6.824,-0.881 -7.882,-0.397 M 244,125.421 c -17.57046,1.37643 -26.96562,11.50144 -31.95217,18.55961 v 0 c -14.98107,20.52537 -16.02975,54.0226 13.33316,73.64911 l 0.89886,0.74905 c 4.10822,2.83153 4.07515,2.87123 9.67015,4.48223 27.54,7.927 55.667,-8.319 62.519,-36.111 1.73,-7.019 1.494,-9.659 -0.995,-11.125 -0.827,-0.487 -1.417,-0.503 -22.474,-0.625 -23.748,-0.137 -22.472,-0.052 -23.839,-1.6 -1.038,-1.175 -1.032,-1.054 -1.161,-23.275 -0.131,-22.501 -0.119,-22.263 -1.204,-23.463 -0.884,-0.976 -2.769,-1.464 -4.796,-1.241 m -15.5,116.781 c -1.783,0.932 -2.125,2.186 -2.125,7.798 0,4.705 0.022,4.918 0.625,6.108 1.202,2.371 -3.387,2.157 44.521,2.082 l 42.147,-0.065 1.03,-0.714 c 1.659,-1.15 1.927,-2.181 1.927,-7.411 0,-5.23 -0.268,-6.261 -1.927,-7.411 l -1.03,-0.714 -42.147,-0.065 c -40.427,-0.063 -42.182,-0.047 -43.021,0.392 m 0.754,33.052 c -2.387,0.566 -3.097,2.716 -2.965,8.966 0.1,4.715 0.471,5.873 2.211,6.892 0.873,0.512 0.978,0.513 42.75,0.513 h 41.875 L 314.25,291 c 2.03,-1.128 2.375,-2.235 2.375,-7.625 0,-5.546 -0.353,-6.652 -2.5,-7.836 -0.828,-0.457 -82.984,-0.732 -84.871,-0.285"
       inkscape:connector-curvature="0"
       style="fill:#ff8a65;fill-opacity:1;fill-rule:evenodd;stroke:none"
       sodipodi:nodetypes="ccccccsccccccccccccccccccsccccscccccccsccscc" />
  </g>
  <g
     inkscape:groupmode="layer"
     id="layer1"
     inkscape:label="Layer 0" />
  <g
     inkscape:groupmode="layer"
     id="layer2"
     inkscape:label="Layer 1">
    <path
       style="display:block"
       id="path30"
       d="M225.003 71.290 C 225.005 98.081,225.162 118.744,225.380 120.633 C 226.225 127.989,230.791 133.647,238.117 136.418 L 240.430 137.292 283.594 137.410 C 307.334 137.475,329.088 137.478,331.935 137.416 L 337.112 137.305 281.056 81.251 L 225.000 25.196 225.003 71.290 "
       stroke="none"
       fill-rule="evenodd"
       fill="#f2f2f2" />
  </g>
  <g
     inkscape:groupmode="layer"
     id="layer3"
     inkscape:label="Layer 2">
    <path
       id="path1-3"
       d="m 142.428,138.2311 c -0.26433,0.0509 -11.81535,2.22793 -86.73708,16.34387 -29.35959,5.53149 -28.406397,5.34612 -29.193668,5.68483 -0.781549,0.33642 -1.255285,0.97493 -1.412624,1.90696 -0.04406,0.26261 -0.127589,0.50692 -0.184803,0.54239 -0.13617,0.0835 -0.140748,152.09085 -0.0052,152.17496 0.05435,0.0337 0.132165,0.26776 0.172788,0.52008 0.06751,0.42453 0.383908,1.11167 0.676846,1.47212 0.271197,0.33299 1.317077,0.73635 2.582088,0.99496 8.90886,1.82114 114.019793,21.49318 115.088553,21.53952 2.24395,0.0973 3.27324,-0.49376 3.53242,-2.02825 -0.0183,-102.12639 -0.0372,-102.22694 -0.0538,-197.34804 -0.36274,-1.45668 -2.27542,-2.22908 -4.46559,-1.8034 m -53.152208,66.1828 c 9.491875,1.05331 14.755028,6.40573 16.032628,16.3044 1.76907,13.70743 -5.343827,24.5221 -17.577418,26.72543 -1.245559,0.22428 -1.969893,0.26662 -5.607012,0.32612 -4.784844,0.0778 -4.832904,0.0875 -5.378158,1.05046 l -0.286072,0.5052 -0.05721,9.66924 c -0.0555,9.40949 -0.06351,9.67954 -0.286073,10.05773 -0.601323,1.02071 -1.010407,1.07449 -5.687115,0.74779 -4.988527,-0.34843 -5.48572,-0.51893 -5.800972,-1.9882 -0.182514,-0.85078 -0.179081,-59.70956 0.0034,-60.56205 0.335849,-1.5694 0.441124,-1.59686 8.166217,-2.15127 3.461474,-0.24831 7.271955,-0.52351 8.467737,-0.61162 2.626715,-0.19338 6.59911,-0.23 8.010019,-0.0732 m -10.724844,11.67346 c -2.203328,0.34329 -2.166139,0.15619 -2.124372,10.59154 l 0.03318,8.22858 0.286072,0.5092 c 0.525801,0.93546 0.691723,0.97837 3.776153,0.9778 3.309856,-0.001 4.477599,-0.21913 6.3508,-1.18434 6.042417,-3.11418 6.148264,-15.25394 0.159056,-18.1982 -1.834867,-0.9017 -5.83072,-1.3371 -8.480893,-0.92458"
       inkscape:connector-curvature="0"
       style="display:block;fill:#d14424;fill-rule:evenodd;stroke:none;stroke-width:0.57214439"
       sodipodi:nodetypes="cccccccccccccccccsccccccccccccccccc" />
  </g>
</svg>
