<?xml version="1.0" encoding="UTF-8" standalone="no"?>
<svg
   xmlns:dc="http://purl.org/dc/elements/1.1/"
   xmlns:cc="http://creativecommons.org/ns#"
   xmlns:rdf="http://www.w3.org/1999/02/22-rdf-syntax-ns#"
   xmlns:svg="http://www.w3.org/2000/svg"
   xmlns="http://www.w3.org/2000/svg"
   xmlns:sodipodi="http://sodipodi.sourceforge.net/DTD/sodipodi-0.dtd"
   xmlns:inkscape="http://www.inkscape.org/namespaces/inkscape"
   id="svg"
   version="1.1"
   width="400"
   height="400"
   style="display: block;"
   sodipodi:docname="word-prefix.svg"
   inkscape:version="0.92.2 (30a58d1, 2017-08-07)">
  <metadata
     id="metadata3962">
    <rdf:RDF>
      <cc:Work
         rdf:about="">
        <dc:format>image/svg+xml</dc:format>
        <dc:type
           rdf:resource="http://purl.org/dc/dcmitype/StillImage" />
        <dc:title />
      </cc:Work>
    </rdf:RDF>
  </metadata>
  <defs
     id="defs3960" />
  <sodipodi:namedview
     pagecolor="#ffffff"
     bordercolor="#666666"
     borderopacity="1"
     objecttolerance="10"
     gridtolerance="10"
     guidetolerance="10"
     inkscape:pageopacity="0"
     inkscape:pageshadow="2"
     inkscape:window-width="1280"
     inkscape:window-height="944"
     id="namedview3958"
     showgrid="false"
     inkscape:zoom="1.668772"
     inkscape:cx="172.46588"
     inkscape:cy="182.04949"
     inkscape:window-x="0"
     inkscape:window-y="0"
     inkscape:window-maximized="1"
     inkscape:current-layer="svg" />
  <g
     id="svgg">
    <path
       id="path0"
       d="m 173.9,140.117 c -1.87,0.147 -5.14,0.402 -7.266,0.568 -5.239,0.407 -6.278,0.89 -7.132,3.311 -0.16,0.452 -2.727,14.025 -5.704,30.163 -8.089,43.843 -7.795,42.405 -8.864,43.409 -1.588,1.492 -1.722,1.039 -7.239,-24.668 -11.096,-51.697 -10.027,-47.17 -11.385,-48.206 -1.155,-0.881 -2.015,-0.916 -9.51,-0.382 -8.248,0.588 -9.279,0.734 -10.461,1.484 -1.712,1.085 -0.582,-3.339 -11.638,45.604 -5.445,24.103 -5.523,24.374 -6.951,24.161 -1.148,-0.17 -1.444,-1.46 -4.867,-21.261 -1.597,-9.24 -3.263,-18.87 -3.701,-21.4 -0.438,-2.53 -1.47,-8.515 -2.294,-13.3 -2.25,-13.07 -1.418,-12.339 -12.988,-11.408 -6.062,0.488 -6.931,0.785 -7.52,2.568 -0.342,1.038 -0.323,1.141 4.325,23.342 2.372,11.329 6.059,28.968 8.193,39.198 6.367,30.524 6.503,31.154 6.989,32.221 1.06,2.33 1.436,2.431 11.737,3.182 8.893,0.647 9.64,0.504 10.732,-2.052 0.223,-0.523 3.074,-12.831 6.334,-27.351 7.382,-32.873 7.86,-34.952 8.338,-36.23 1.122,-2.998 2.365,-2.634 3.47,1.017 0.268,0.887 3.552,15.428 7.298,32.313 7.452,33.59 7.326,33.07 8.26,34.133 1.3,1.481 1.621,1.538 13.419,2.388 8.419,0.606 9.021,0.57 10.216,-0.625 1.044,-1.044 1.073,-1.153 8.409,-31.416 3.811,-15.719 9.578,-39.496 12.815,-52.838 6.259,-25.801 6.309,-26.049 5.451,-27.139 -0.929,-1.182 -2.072,-1.288 -8.466,-0.786"
       inkscape:connector-curvature="0"
       style="fill:#ffffff;fill-rule:evenodd;stroke:none"
       sodipodi:nodetypes="ccccccccccccsccccccccccccccscccc" />
    <path
       id="path1"
       d="m 221.3,24.329 c -0.33,0.052 -4.38,0.805 -9,1.674 C 201.425,28.05 91.877,48.69 51.407,56.318 c -31.944,6.021 -32.979,6.243 -33.876,7.255 -0.834,0.941 -1.21,1.941 -1.211,3.227 -0.001,0.715 -0.035,1.051 -0.075,0.747 -0.04,-0.305 -0.156,-0.502 -0.259,-0.439 -0.252,0.157 -0.252,265.692 10e-4,265.692 0.102,0 0.219,-0.247 0.259,-0.55 0.04,-0.303 0.072,0.035 0.071,0.75 -0.002,3.15 1.358,4.136 7.283,5.279 44.879,8.653 197.484,37.188 199.325,37.27 3.92,0.175 5.72,-0.858 6.174,-3.542 0.075,-0.444 0.218,-0.807 0.319,-0.807 -0.321,-343.45 -0.319,0.807 -0.006,-342.6 -0.103,0 -0.245,-0.382 -0.315,-0.85 -0.403,-2.672 -3.599,-4.075 -7.797,-3.421 m -40.027,115.747 c 2.297,0.959 2.482,-0.227 -4.358,27.966 -3.237,13.342 -9.004,37.119 -12.815,52.838 -7.336,30.263 -7.365,30.372 -8.409,31.416 -1.195,1.195 -1.797,1.231 -10.216,0.625 -11.798,-0.85 -12.119,-0.907 -13.419,-2.388 -0.934,-1.063 -0.808,-0.543 -8.26,-34.133 -3.746,-16.885 -7.03,-31.426 -7.298,-32.313 -1.105,-3.651 -2.348,-4.015 -3.47,-1.017 -0.478,1.278 -0.956,3.357 -8.338,36.23 -3.26,14.52 -6.111,26.828 -6.334,27.351 -1.092,2.556 -1.839,2.699 -10.732,2.052 -10.301,-0.751 -10.677,-0.852 -11.737,-3.182 -0.486,-1.067 -0.622,-1.697 -6.989,-32.221 -2.134,-10.23 -5.821,-27.869 -8.193,-39.198 -4.648,-22.201 -4.667,-22.304 -4.325,-23.342 0.589,-1.783 1.458,-2.08 7.52,-2.568 11.57,-0.931 10.738,-1.662 12.988,11.408 0.824,4.785 1.856,10.77 2.294,13.3 0.438,2.53 2.104,12.16 3.701,21.4 3.423,19.801 3.719,21.091 4.867,21.261 1.428,0.213 1.506,-0.058 6.951,-24.161 11.056,-48.943 9.926,-44.519 11.638,-45.604 1.383,-0.877 15.785,-2.28 18.342,-1.786 2.623,0.507 2.62,0.499 6.025,16.342 1.577,7.341 4.722,21.988 6.989,32.548 5.517,25.707 5.651,26.16 7.239,24.668 1.069,-1.004 0.775,0.434 8.864,-43.409 2.977,-16.138 5.544,-29.711 5.704,-30.163 0.854,-2.421 1.893,-2.904 7.132,-3.311 2.126,-0.166 5.396,-0.421 7.266,-0.568 4.639,-0.364 6.574,-0.375 7.373,-0.041"
       inkscape:connector-curvature="0"
       style="fill:#295497;fill-rule:evenodd;stroke:none"
       sodipodi:nodetypes="ccsccccsscccccccccccsccccccccccccccsccccccccccccc" />
  </g>
</svg>
